<svg width="24" height="24" viewBox="0 0 24 24" fill="none" xmlns="http://www.w3.org/2000/svg">
<path d="M10.4297 20.8641L11.4703 21.9047C11.9109 22.3453 12.6234 22.3453 13.0594 21.9047L22.1719 12.7969C22.6125 12.3562 22.6125 11.6437 22.1719 11.2078L13.0594 2.0953C12.6187 1.65468 11.9062 1.65468 11.4703 2.0953L10.4297 3.13593C9.98435 3.58124 9.99373 4.3078 10.4484 4.74374L16.0969 10.125H2.62498C2.00154 10.125 1.49998 10.6266 1.49998 11.25V12.75C1.49998 13.3734 2.00154 13.875 2.62498 13.875H16.0969L10.4484 19.2562C9.98904 19.6922 9.97966 20.4187 10.4297 20.8641Z" fill="white"/>
</svg>
