<svg width="132" height="132" viewBox="0 0 132 132" fill="none" xmlns="http://www.w3.org/2000/svg">
<g opacity="0.2">
<path d="M54.5491 81.0336C54.5491 86.0471 54.5007 91.0614 54.5715 96.0739C54.6028 97.0331 54.3607 97.9813 53.8734 98.8081C53.3862 99.6349 52.6739 100.306 51.8197 100.743C51.022 101.2 50.1087 101.415 49.191 101.363C48.2732 101.31 47.3906 100.992 46.6503 100.447C46.0173 100.039 45.4934 99.4832 45.1241 98.8271C44.7548 98.1711 44.5513 97.4347 44.5313 96.6821C44.4321 95.4122 44.4233 94.1368 44.5049 92.8656C44.5463 91.7597 44.097 91.3555 42.9825 91.2555C38.7462 90.9822 34.779 89.0841 31.9081 85.957C28.985 82.9882 27.3251 79.0027 27.2766 74.8366C27.2826 71.6535 27.277 68.4703 27.2902 65.2872C27.3657 59.5651 29.0498 53.9797 32.1499 49.1695C32.3959 48.7609 32.674 48.3726 32.9817 48.0082C33.2003 47.8001 33.3757 47.551 33.4979 47.275C33.6202 46.9991 33.6868 46.7018 33.6941 46.4C33.7013 46.0983 33.649 45.7981 33.5401 45.5166C33.4313 45.2351 33.268 44.9779 33.0596 44.7595C31.8676 43.1105 31.2291 41.1259 31.236 39.0912C31.2429 37.0564 31.8947 35.0762 33.0978 33.4353C33.4238 32.8207 33.8688 32.2771 34.4069 31.8361C34.9449 31.3952 35.5653 31.0656 36.2319 30.8666C36.8986 30.6677 37.5981 30.6032 38.2898 30.6772C38.9816 30.7511 39.6517 30.9618 40.2612 31.2971C41.1999 31.7958 41.9478 32.5902 42.389 33.5572C42.8303 34.5241 42.9403 35.6096 42.7019 36.6454C42.6575 36.8791 42.6201 37.115 42.5968 37.3516C42.5131 38.202 42.7565 38.4109 43.5024 38.0642C44.2191 37.7309 44.908 37.3366 45.6024 36.9569C51.7476 33.6867 58.7921 32.5112 65.6662 33.609C72.4256 34.4756 78.7535 37.4052 83.7874 41.9987C88.8214 46.5922 92.3167 52.626 93.7969 59.2781C94.3206 61.4257 94.6159 63.6226 94.6779 65.8323C94.6959 69.2606 96.2074 70.9246 99.6462 71.2312C104.013 71.6207 106.029 75.9518 103.821 79.1325C103.47 79.7538 102.965 80.2749 102.355 80.6462C101.745 81.0174 101.05 81.2266 100.337 81.2538C98.2681 81.2739 96.199 81.2683 94.1301 81.2652C93.2927 81.2136 92.4829 80.9471 91.7786 80.4913C91.0743 80.0355 90.4994 79.4059 90.1093 78.6632C89.6956 78.0638 89.5872 77.8504 89.0595 78.5503C88.4843 79.3855 87.7799 80.1237 86.9726 80.7374C85.7347 81.5851 78.528 81.5096 77.1721 80.7822C76.2711 80.3441 75.5349 79.6278 75.0725 78.739C74.6101 77.8503 74.4459 76.8363 74.6043 75.847C74.6704 74.9327 74.9987 74.0569 75.5498 73.3243C76.1008 72.5917 76.8514 72.0335 77.7115 71.7165C78.373 71.462 79.0685 71.3062 79.7754 71.2543C80.5262 71.2137 81.2586 71.007 81.9199 70.6493C82.5812 70.2915 83.1549 69.7914 83.5996 69.1852C84.0444 68.579 84.3491 67.8816 84.4918 67.1434C84.6346 66.4052 84.6118 65.6445 84.4251 64.9162C84.0381 62.3319 83.0523 59.8739 81.5462 57.7384C79.4068 54.8486 76.2781 52.8478 72.7574 52.1179C70.6341 51.6168 68.4247 51.6045 66.2959 52.0819C64.1672 52.5593 62.1746 53.514 60.4687 54.8738C58.6743 56.125 57.2051 57.7871 56.1838 59.7215C55.1626 61.656 54.6188 63.8067 54.5978 65.994C54.4371 71.0024 54.5613 76.02 54.5613 81.0335L54.5491 81.0336ZM46.4301 76.2833C46.4462 76.024 46.4095 75.7641 46.3224 75.5194C46.2352 75.2746 46.0994 75.0501 45.9231 74.8593C45.7468 74.6685 45.5336 74.5153 45.2965 74.4091C45.0594 74.303 44.8033 74.2459 44.5435 74.2414C44.2837 74.2369 44.0258 74.2851 43.7851 74.3831C43.5445 74.481 43.3262 74.6267 43.1434 74.8113C42.9606 74.9959 42.8172 75.2157 42.7216 75.4573C42.6261 75.6989 42.5805 75.9573 42.5876 76.217C42.5586 76.4836 42.5856 76.7533 42.6667 77.0088C42.7479 77.2644 42.8814 77.5002 43.0587 77.7013C43.2361 77.9024 43.4534 78.0644 43.6968 78.1768C43.9403 78.2892 44.2045 78.3496 44.4725 78.3543C44.7406 78.3589 45.0068 78.3076 45.2539 78.2036C45.5011 78.0997 45.7239 77.9453 45.908 77.7505C46.0922 77.5556 46.2338 77.3245 46.3237 77.0719C46.4136 76.8193 46.4498 76.5507 46.4301 76.2833Z" fill="white"/>
</g>
</svg>
