<svg width="168" height="168" viewBox="0 0 168 168" fill="none" xmlns="http://www.w3.org/2000/svg">
<g opacity="0.15">
<path d="M69.4262 103.134C69.4262 109.515 69.3646 115.896 69.4547 122.276C69.4945 123.497 69.1864 124.704 68.5663 125.756C67.9462 126.808 67.0396 127.662 65.9525 128.219C64.9371 128.8 63.7748 129.074 62.6068 129.007C61.4388 128.94 60.3154 128.535 59.3732 127.841C58.5676 127.323 57.9008 126.615 57.4308 125.78C56.9608 124.945 56.7018 124.008 56.6763 123.05C56.55 121.434 56.5388 119.811 56.6428 118.193C56.6953 116.785 56.1235 116.271 54.705 116.143C49.3135 115.796 44.2643 113.38 40.6104 109.4C36.8901 105.621 34.7775 100.549 34.7157 95.2467C34.7234 91.1954 34.7163 87.1441 34.7331 83.0929C34.8292 75.8102 36.9726 68.7015 40.9182 62.5794C41.2312 62.0594 41.5852 61.5652 41.9768 61.1015C42.255 60.8366 42.4782 60.5195 42.6338 60.1683C42.7894 59.8171 42.8742 59.4387 42.8834 59.0547C42.8926 58.6707 42.8261 58.2886 42.6875 57.9303C42.549 57.5721 42.3412 57.2446 42.076 56.9667C40.5589 54.8679 39.7463 52.3422 39.755 49.7525C39.7637 47.1628 40.5934 44.6426 42.1246 42.554C42.5395 41.7719 43.1059 41.08 43.7907 40.5188C44.4755 39.9575 45.2651 39.5381 46.1135 39.2849C46.9619 39.0316 47.8522 38.9496 48.7326 39.0437C49.613 39.1378 50.4659 39.406 51.2417 39.8328C52.4363 40.4675 53.3882 41.4785 53.9498 42.7092C54.5114 43.9399 54.6514 45.3214 54.348 46.6397C54.2914 46.9371 54.2438 47.2374 54.2142 47.5385C54.1077 48.6208 54.4175 48.8867 55.3668 48.4454C56.279 48.0213 57.1557 47.5194 58.0396 47.0361C65.8607 42.874 74.8265 41.378 83.5752 42.7751C92.1781 43.878 100.232 47.6067 106.639 53.4529C113.046 59.2992 117.494 66.9787 119.378 75.4449C120.045 78.1782 120.42 80.9743 120.499 83.7866C120.522 88.1499 122.446 90.2678 126.823 90.658C132.381 91.1536 134.946 96.666 132.136 100.714C131.689 101.505 131.046 102.168 130.27 102.641C129.494 103.113 128.61 103.379 127.702 103.414C125.069 103.44 122.435 103.432 119.802 103.429C118.736 103.363 117.706 103.024 116.809 102.444C115.913 101.863 115.181 101.062 114.685 100.117C114.158 99.354 114.02 99.0823 113.349 99.9731C112.617 101.036 111.72 101.976 110.693 102.757C109.117 103.836 99.9449 103.74 98.2191 102.814C97.0723 102.256 96.1354 101.344 95.5469 100.213C94.9584 99.0822 94.7494 97.7917 94.951 96.5326C95.0352 95.369 95.453 94.2542 96.1543 93.3219C96.8557 92.3896 97.8109 91.6791 98.9056 91.2756C99.7476 90.9517 100.633 90.7534 101.532 90.6873C102.488 90.6357 103.42 90.3727 104.262 89.9173C105.103 89.4619 105.834 88.8255 106.4 88.054C106.966 87.2824 107.353 86.3948 107.535 85.4553C107.717 84.5158 107.688 83.5476 107.45 82.6207C106.958 79.3316 105.703 76.2032 103.786 73.4853C101.063 69.8074 97.0813 67.2609 92.6004 66.3319C89.898 65.6942 87.0861 65.6785 84.3767 66.2861C81.6674 66.8937 79.1314 68.1088 76.9602 69.8395C74.6764 71.4318 72.8066 73.5473 71.5068 76.0093C70.207 78.4713 69.5149 81.2085 69.4882 83.9925C69.2836 90.3668 69.4417 96.7528 69.4417 103.134L69.4262 103.134ZM59.093 97.0879C59.1134 96.7579 59.0667 96.4271 58.9558 96.1157C58.8449 95.8042 58.672 95.5184 58.4476 95.2755C58.2232 95.0326 57.952 94.8378 57.6502 94.7026C57.3484 94.5675 57.0224 94.4948 56.6918 94.4891C56.3612 94.4834 56.0329 94.5448 55.7266 94.6694C55.4204 94.7941 55.1425 94.9795 54.9099 95.2145C54.6773 95.4494 54.4946 95.7291 54.3731 96.0366C54.2515 96.3441 54.1934 96.673 54.2024 97.0035C54.1656 97.3428 54.2 97.686 54.3032 98.0113C54.4065 98.3366 54.5764 98.6367 54.8021 98.8927C55.0278 99.1486 55.3044 99.3547 55.6142 99.4978C55.9241 99.6409 56.2603 99.7178 56.6015 99.7237C56.9427 99.7296 57.2814 99.6643 57.596 99.532C57.9105 99.3997 58.1941 99.2032 58.4285 98.9552C58.6629 98.7072 58.8431 98.4131 58.9575 98.0916C59.0719 97.7701 59.1181 97.4282 59.093 97.0879Z" fill="#1FB2E4"/>
</g>
</svg>
