<svg width="96" height="96" viewBox="0 0 96 96" fill="none" xmlns="http://www.w3.org/2000/svg">
<g opacity="0.2">
<path d="M39.672 58.9335C39.672 62.5797 39.6368 66.2265 39.6883 69.8719C39.711 70.5695 39.5349 71.2592 39.1806 71.8604C38.8262 72.4617 38.3082 72.9499 37.687 73.2679C37.1068 73.6001 36.4426 73.7565 35.7752 73.7182C35.1077 73.6799 34.4658 73.4485 33.9274 73.0522C33.4671 72.7558 33.086 72.3514 32.8175 71.8743C32.5489 71.3971 32.4009 70.8616 32.3863 70.3143C32.3141 69.3907 32.3077 68.4631 32.3671 67.5386C32.3972 66.7343 32.0704 66.4404 31.2599 66.3676C28.179 66.1688 25.2937 64.7884 23.2058 62.5142C21.0799 60.355 19.8727 57.4565 19.8374 54.4266C19.8418 52.1116 19.8377 49.7966 19.8473 47.4816C19.9023 43.3201 21.127 39.2579 23.3817 35.7596C23.5606 35.4625 23.7628 35.1801 23.9866 34.9151C24.1456 34.7637 24.2731 34.5825 24.362 34.3819C24.4509 34.1812 24.4994 33.9649 24.5047 33.7455C24.5099 33.5261 24.4719 33.3077 24.3927 33.103C24.3136 32.8983 24.1948 32.7112 24.0433 32.5524C23.1764 31.3531 22.712 29.9098 22.717 28.43C22.722 26.9501 23.1961 25.51 24.0711 24.3166C24.3082 23.8696 24.6318 23.4743 25.0231 23.1536C25.4144 22.8328 25.8656 22.5932 26.3504 22.4485C26.8352 22.3037 27.344 22.2569 27.8471 22.3107C28.3501 22.3644 28.8375 22.5177 29.2808 22.7615C29.9635 23.1242 30.5074 23.702 30.8283 24.4052C31.1492 25.1085 31.2292 25.8979 31.0559 26.6512C31.0235 26.8212 30.9963 26.9928 30.9794 27.1648C30.9185 27.7833 31.0956 27.9352 31.638 27.683C32.1593 27.4407 32.6603 27.1539 33.1653 26.8777C37.6346 24.4994 42.7578 23.6445 47.7571 24.4429C52.6731 25.0731 57.2752 27.2038 60.9362 30.5445C64.5973 33.8852 67.1393 38.2735 68.2158 43.1113C68.5967 44.6732 68.8115 46.271 68.8566 47.878C68.8697 50.3713 69.9689 51.5815 72.4699 51.8045C75.646 52.0878 77.1118 55.2377 75.5064 57.5509C75.2506 58.0028 74.8834 58.3817 74.4399 58.6518C73.9963 58.9218 73.4911 59.0739 72.9722 59.0937C71.4676 59.1083 69.9628 59.1042 68.4582 59.102C67.8492 59.0645 67.2602 58.8706 66.748 58.5391C66.2358 58.2077 65.8176 57.7497 65.534 57.2096C65.2331 56.7737 65.1543 56.6184 64.7705 57.1275C64.3522 57.7349 63.8399 58.2718 63.2527 58.7181C62.3524 59.3346 57.1112 59.2797 56.1251 58.7507C55.4698 58.4321 54.9344 57.9111 54.5981 57.2647C54.2618 56.6184 54.1424 55.8809 54.2576 55.1615C54.3057 54.4965 54.5444 53.8595 54.9452 53.3268C55.346 52.794 55.8918 52.388 56.5174 52.1575C56.9985 51.9724 57.5042 51.8591 58.0184 51.8213C58.5644 51.7918 59.0971 51.6415 59.578 51.3813C60.059 51.1211 60.4762 50.7574 60.7996 50.3165C61.1231 49.8756 61.3447 49.3684 61.4485 48.8316C61.5524 48.2947 61.5358 47.7415 61.4 47.2118C61.1186 45.3323 60.4016 43.5446 59.3063 41.9916C57.7503 39.8899 55.4749 38.4348 52.9144 37.9039C51.3702 37.5395 49.7633 37.5305 48.2151 37.8777C46.667 38.225 45.2178 38.9193 43.9771 39.9082C42.6721 40.8181 41.6037 42.027 40.8609 43.4338C40.1181 44.8407 39.7226 46.4048 39.7074 47.9957C39.5905 51.6381 39.6809 55.2873 39.6809 58.9335L39.672 58.9335ZM33.7673 55.4788C33.7789 55.2902 33.7523 55.1012 33.6889 54.9232C33.6255 54.7452 33.5267 54.5819 33.3985 54.4431C33.2703 54.3043 33.1153 54.193 32.9428 54.1157C32.7704 54.0385 32.5841 53.997 32.3952 53.9938C32.2063 53.9905 32.0186 54.0255 31.8436 54.0968C31.6686 54.168 31.5099 54.274 31.377 54.4082C31.244 54.5425 31.1397 54.7023 31.0702 54.878C31.0007 55.0537 30.9675 55.2417 30.9727 55.4306C30.9517 55.6244 30.9713 55.8206 31.0303 56.0064C31.0893 56.1923 31.1864 56.3638 31.3154 56.5101C31.4443 56.6563 31.6024 56.7741 31.7794 56.8558C31.9565 56.9376 32.1486 56.9816 32.3436 56.9849C32.5386 56.9883 32.7321 56.951 32.9119 56.8754C33.0916 56.7998 33.2536 56.6875 33.3876 56.5458C33.5215 56.4041 33.6245 56.236 33.6899 56.0523C33.7552 55.8686 33.7816 55.6732 33.7673 55.4788Z" fill="#1FB2E4"/>
</g>
</svg>
