<svg width="96" height="96" viewBox="0 0 96 96" fill="none" xmlns="http://www.w3.org/2000/svg">
<g opacity="0.2">
<path d="M78.9672 52.8049C78.9672 57.8408 78.9659 62.8767 78.9634 67.9126C78.9708 68.6315 78.767 69.3368 78.3771 69.9409C77.9872 70.545 77.4284 71.0213 76.7702 71.3106C76.2103 71.5252 75.607 71.6023 75.011 71.5355C74.4151 71.4687 73.8439 71.2599 73.3453 70.9267C72.8468 70.5934 72.4354 70.1454 72.1458 69.6203C71.8562 69.0952 71.6967 68.5083 71.6809 67.9089C71.6295 65.5367 71.6294 63.1636 71.6806 60.7896C71.7005 60.2736 71.6095 59.7593 71.4136 59.2816C71.2177 58.8038 70.9215 58.3736 70.545 58.0202C70.1686 57.6667 69.7206 57.3982 69.2315 57.2328C68.7423 57.0673 68.2234 57.0088 67.7097 57.0612C66.796 57.1801 65.9564 57.6258 65.346 58.3159C64.7357 59.0061 64.3959 59.894 64.3897 60.8153C64.3434 63.2455 64.3781 65.6773 64.377 68.1084C64.3769 68.8036 64.1634 69.482 63.7654 70.052C63.3674 70.622 62.804 71.056 62.1514 71.2956C61.5925 71.5136 60.9892 71.5929 60.393 71.5268C59.7967 71.4608 59.2254 71.2512 58.7278 70.9161C58.2302 70.581 57.8213 70.1304 57.5359 69.6027C57.2505 69.0751 57.0972 68.4862 57.089 67.8863C57.0495 65.5137 57.0497 63.1406 57.0896 60.7669C57.1081 60.2506 57.0152 59.7364 56.8173 59.2593C56.6193 58.7821 56.3208 58.3531 55.9423 58.0016C55.5637 57.6501 55.1138 57.3843 54.6233 57.2221C54.1328 57.06 53.6131 57.0055 53.0996 57.0622C52.187 57.1873 51.3504 57.6381 50.7441 58.3315C50.1377 59.0249 49.8025 59.9142 49.8002 60.8353C49.7575 63.2078 49.8003 65.5816 49.785 67.9548C49.7863 68.6732 49.5749 69.376 49.1776 69.9745C48.7803 70.5731 48.2147 71.0407 47.5522 71.3185C46.9904 71.5277 46.3866 71.599 45.7915 71.5263C45.1964 71.4536 44.6275 71.2392 44.1325 70.901C43.6375 70.5628 43.2309 70.1107 42.947 69.5827C42.663 69.0547 42.51 68.4663 42.5006 67.8669C42.4639 64.3942 42.4915 60.9209 42.4913 57.4478C42.4913 55.5377 42.4569 53.6267 42.4997 51.7175C42.5168 51.2163 42.4284 50.7171 42.2404 50.2522C42.0523 49.7873 41.7688 49.367 41.4081 49.0186C41.0474 48.6702 40.6175 48.4014 40.1464 48.2296C39.6752 48.0578 39.1733 47.9868 38.6729 48.0212C37.695 48.1061 36.7877 48.5658 36.141 49.3043C35.4943 50.0428 35.1582 51.0027 35.203 51.9833C35.2042 53.3913 34.9098 54.7838 34.3389 56.0709C33.768 57.3579 32.9333 58.5108 31.8888 59.455C30.1452 61.1383 27.8677 62.1586 25.4508 62.3392C22.9059 62.6662 20.3303 62.0345 18.2255 60.5671C17.0094 59.7541 15.9719 58.7017 15.1764 57.4742C14.3809 56.2466 13.8441 54.8697 13.5988 53.4276C13.0849 50.3153 13.3955 47.2134 13.3529 44.11C13.4223 43.3335 13.7276 42.5969 14.2279 41.9991C14.7281 41.4012 15.3993 40.9707 16.1513 40.7654C16.9416 40.5915 17.767 40.6802 18.5022 41.0183C19.2374 41.3563 19.8422 41.9251 20.2246 42.6382C20.451 43.0888 20.577 43.5832 20.5939 44.0872C20.6326 46.344 20.5718 48.603 20.6341 50.8588C20.6668 51.6534 20.8271 52.4377 21.109 53.1814C21.4223 53.8233 21.9131 54.362 22.5231 54.7335C23.1332 55.1051 23.837 55.2939 24.5511 55.2776C25.4145 55.1886 26.2199 54.8016 26.8291 54.1833C27.4382 53.565 27.813 52.7539 27.8892 51.8892C27.9216 47.5482 27.8366 43.2055 27.9175 38.8657C27.9257 35.5778 29.0517 32.3904 31.1108 29.8271C33.1699 27.2637 36.0395 25.4769 39.2483 24.76C40.0784 24.5588 40.9277 24.4469 41.7817 24.4263C49.4223 24.4001 57.063 24.3951 64.7037 24.4112C68.4035 24.408 71.9547 25.8671 74.5835 28.4705C76.8036 30.6429 78.3089 33.4403 78.8989 36.4899C78.9793 37.004 79.0003 37.5256 78.9617 38.0444C78.9654 42.9646 78.9661 47.8847 78.9639 52.8049L78.9672 52.8049ZM38.7946 39.0158C38.9866 39.0433 39.1823 39.0307 39.3692 38.9787C39.5561 38.9268 39.7301 38.8365 39.8803 38.7138C40.0305 38.591 40.1535 38.4384 40.2417 38.2656C40.3298 38.0928 40.3811 37.9035 40.3922 37.7099C40.4034 37.5162 40.3743 37.3223 40.3066 37.1405C40.2389 36.9587 40.1342 36.793 39.9992 36.6538C39.8641 36.5145 39.7016 36.4049 39.5219 36.3318C39.3422 36.2586 39.1493 36.2236 38.9554 36.2289C38.5548 36.2002 38.1592 36.3315 37.8552 36.594C37.5512 36.8565 37.3637 37.2288 37.3337 37.6293C37.3691 37.9978 37.5364 38.341 37.8048 38.5958C38.0733 38.8506 38.4248 38.9997 38.7946 39.0158Z" fill="#BBA4E2"/>
</g>
</svg>
