<svg width="32" height="32" viewBox="0 0 32 32" fill="none" xmlns="http://www.w3.org/2000/svg">
<path d="M27 2H5C4.20435 2 3.44129 2.31607 2.87868 2.87868C2.31607 3.44129 2 4.20435 2 5L2 27C2 27.7956 2.31607 28.5587 2.87868 29.1213C3.44129 29.6839 4.20435 30 5 30H13.5781V20.4806H9.64062V16H13.5781V12.585C13.5781 8.70062 15.8906 6.555 19.4325 6.555C21.1288 6.555 22.9025 6.8575 22.9025 6.8575V10.67H20.9481C19.0225 10.67 18.4219 11.865 18.4219 13.0906V16H22.7206L22.0331 20.4806H18.4219V30H27C27.7956 30 28.5587 29.6839 29.1213 29.1213C29.6839 28.5587 30 27.7956 30 27V5C30 4.20435 29.6839 3.44129 29.1213 2.87868C28.5587 2.31607 27.7956 2 27 2V2Z" fill="#152536"/>
</svg>
