<svg width="96" height="96" viewBox="0 0 96 96" fill="none" xmlns="http://www.w3.org/2000/svg">
<g opacity="0.2">
<path d="M34.2358 22.8132C34.2143 21.9488 34.1625 21.0838 34.181 20.2202C34.195 19.5651 33.9636 19.2856 33.2833 19.301C31.8986 19.3322 30.5115 19.274 29.1275 19.3193C28.1429 19.318 27.1894 18.9749 26.4296 18.3488C25.853 17.9034 25.4263 17.2925 25.2064 16.5979C24.9865 15.9033 24.9839 15.1581 25.1991 14.4621C25.4494 13.7206 25.9134 13.0698 26.5327 12.5915C27.152 12.1131 27.8989 11.8286 28.6796 11.7737C31.738 11.7155 34.7996 11.7031 37.8575 11.7735C38.8709 11.8348 39.8258 12.2686 40.5387 12.9915C41.2515 13.7143 41.6719 14.6752 41.7191 15.6894C41.7751 16.8412 41.7322 17.998 41.7322 19.1525C41.7324 24.6944 41.7392 30.2363 41.7209 35.7781C41.6805 36.3296 41.5993 36.8773 41.4779 37.4167C40.7541 37.3213 40.0202 37.4899 39.4105 37.8915C38.8008 38.2931 38.3562 38.9009 38.1581 39.6035C37.882 40.2736 37.819 41.0125 37.9776 41.7197C38.1363 42.4269 38.509 43.0681 39.0449 43.556C39.7069 44.1819 40.5565 44.5724 41.4626 44.6672C41.506 44.7054 41.5752 44.7359 41.5889 44.7828C42.3672 47.4291 43.3484 48.1538 46.1555 48.1749C47.02 48.1814 47.8842 48.2218 48.7486 48.2467C48.7528 50.6155 48.7764 52.9844 48.7527 55.3529C48.7383 55.8699 48.8366 56.3838 49.0407 56.859C49.2448 57.3341 49.5498 57.7593 49.9345 58.1048C50.4898 58.6089 51.1849 58.9326 51.928 59.0331C52.6712 59.1336 53.4274 59.0062 54.0965 58.6678C54.7394 58.4018 55.2788 57.9348 55.634 57.3366C55.9893 56.7385 56.1412 56.0414 56.0672 55.3497C56.0261 52.9818 56.0731 50.6125 56.0827 48.2438C58.1432 48.0863 60.2149 48.164 62.2578 48.4752C64.3912 48.9342 66.3325 50.0362 67.8202 51.6326C69.308 53.2289 70.2706 55.243 70.5784 57.4033C70.6497 57.9219 70.6583 58.4471 70.6038 58.9677C69.5876 58.9927 68.5765 59.1212 67.5862 59.3512C67.1325 59.507 66.7152 59.7535 66.3597 60.0757C66.0042 60.3979 65.7181 60.7891 65.5186 61.2254C65.3192 61.6618 65.2106 62.1341 65.1995 62.6137C65.1884 63.0934 65.275 63.5702 65.4541 64.0153C65.6813 64.667 66.1047 65.2324 66.666 65.6338C67.2274 66.0353 67.8992 66.2533 68.5894 66.2577C69.2775 66.2687 69.9661 66.256 70.6545 66.254C70.7758 66.6179 70.8578 66.9937 70.8988 67.3751C70.9149 72.9705 70.9379 78.5661 70.8916 84.1611C70.9729 84.9242 70.8218 85.694 70.458 86.3697C70.0942 87.0454 69.5348 87.5954 68.8531 87.9476C68.2651 88.2235 67.617 88.3465 66.9689 88.3051C66.3207 88.2637 65.6935 88.0594 65.1454 87.711C64.5973 87.3626 64.146 86.8815 63.8334 86.3122C63.5208 85.7429 63.357 85.1039 63.3572 84.4544C63.3489 83.3611 63.4006 82.267 63.4227 81.1733C63.9841 81.0923 64.5373 80.9623 65.0759 80.7845C65.8038 80.3872 66.3801 79.7606 66.7152 79.0021C67.0504 78.2436 67.1257 77.3956 66.9294 76.5899C66.7424 75.8039 66.2918 75.1056 65.6526 74.6114C65.0133 74.1173 64.2241 73.8571 63.4163 73.8742C63.3939 71.4464 63.3784 69.0187 63.347 66.5911C63.3951 65.725 63.1178 64.8722 62.5695 64.2001C62.0212 63.5279 61.2415 63.0849 60.3834 62.9581C59.9104 62.8666 59.4235 62.8756 58.9542 62.9843C58.4848 63.093 58.0436 63.2992 57.659 63.5893C57.2744 63.8795 56.9551 64.2472 56.7217 64.6687C56.4884 65.0902 56.3461 65.556 56.3043 66.0359C56.4059 68.4024 56.3238 70.7768 56.3229 73.1478C56.3214 76.7911 56.3446 80.4347 56.3124 84.0777C56.3866 84.9434 56.1801 85.8099 55.7234 86.5491C55.2668 87.2883 54.5843 87.8608 53.7769 88.1819C53.2385 88.377 52.6626 88.4463 52.0933 88.3846C51.5239 88.3229 50.9762 88.1319 50.4921 87.826C50.008 87.5201 49.6002 87.1076 49.3 86.6199C48.9998 86.1322 48.8151 85.5823 48.7601 85.0123C48.8077 81.197 48.8028 77.3811 48.8197 73.5655C49.5141 73.5594 50.2087 73.5609 50.9029 73.5456C51.6797 73.531 52.4298 73.2593 53.0357 72.773C53.6416 72.2867 54.0692 71.6132 54.2515 70.8579C54.4248 70.1237 54.3654 69.3538 54.0815 68.6549C53.7975 67.956 53.3032 67.3628 52.6669 66.9576C51.4909 66.3354 50.1512 66.0926 48.8317 66.2625C48.7602 65.4582 48.428 64.6992 47.8856 64.101C47.3433 63.5027 46.6204 63.098 45.8269 62.9483C43.8589 62.4519 41.6407 64.3232 41.7184 66.0049C41.8197 68.197 41.7497 70.3979 41.7198 72.5945C41.6755 73.0331 41.591 73.4667 41.4674 73.8899C38.9633 74.2457 37.9551 75.2776 37.9706 77.4687C37.9852 79.5272 39.2262 80.8428 41.4571 81.1648C42.0164 82.9184 41.9064 84.8171 41.1481 86.4943C40.7921 87.1554 40.2445 87.6933 39.5772 88.0374C38.9099 88.3816 38.1541 88.5159 37.4091 88.4228C36.6419 88.2928 35.9294 87.9413 35.3593 87.4117C34.7892 86.8821 34.3863 86.1974 34.2002 85.4418C34.1739 85.2119 34.1655 84.9803 34.1752 84.7492C34.1762 76.4241 34.179 68.0991 34.1835 59.7741C34.1946 59.6014 34.2173 59.4297 34.2515 59.26C35.5577 59.1622 36.8647 59.0745 38.1699 58.9643C39.0065 58.9775 39.8159 58.6669 40.429 58.0973C41.042 57.5278 41.4112 56.7434 41.4595 55.908C41.5857 53.773 40.6523 52.3534 38.6821 52.0252C37.2271 51.7828 35.7298 51.7946 34.2514 51.6931C34.2253 50.1982 34.1741 48.7033 34.1774 47.2085C34.1903 41.5099 34.2127 35.8113 34.2447 30.1128C35.268 30.0722 36.2868 29.9559 37.2929 29.7649C37.9578 29.5782 38.5479 29.1887 38.9808 28.6506C39.4137 28.1125 39.6678 27.4527 39.7078 26.7633C39.7943 26.0472 39.6568 25.3219 39.3142 24.6872C38.9716 24.0524 38.4408 23.5394 37.7948 23.2187C36.6382 22.6052 35.4239 22.9173 34.2358 22.8132ZM37.7479 16.9182C37.9386 16.9472 38.1332 16.9364 38.3195 16.8865C38.5057 16.8365 38.6796 16.7485 38.8302 16.6279C38.9807 16.5074 39.1046 16.357 39.1942 16.1861C39.2837 16.0153 39.3368 15.8278 39.3502 15.6354C39.3636 15.443 39.337 15.25 39.2721 15.0684C39.2071 14.8868 39.1052 14.7206 38.9729 14.5804C38.8405 14.4401 38.6805 14.3288 38.503 14.2535C38.3254 14.1782 38.1342 14.1405 37.9414 14.1427C37.5436 14.1127 37.15 14.2402 36.8453 14.4976C36.5405 14.7549 36.3491 15.1217 36.3121 15.5189C36.3471 15.8843 36.5106 16.2255 36.7735 16.4817C37.0364 16.738 37.3817 16.8926 37.7479 16.9182Z" fill="#FCC50D"/>
<path d="M56.0827 48.2438C56.0731 50.6125 56.0261 52.9819 56.0671 55.3497C56.1412 56.0414 55.9892 56.7385 55.634 57.3367C55.2788 57.9348 54.7393 58.4018 54.0965 58.6678C53.4273 59.0063 52.6712 59.1337 51.928 59.0331C51.1849 58.9326 50.4897 58.6089 49.9345 58.1048C49.5497 57.7593 49.2447 57.3342 49.0406 56.859C48.8366 56.3838 48.7383 55.8699 48.7527 55.353C48.7764 52.9845 48.7528 50.6155 48.7485 48.2467L56.0827 48.2438Z" fill="#FCC50D"/>
<path d="M34.2515 51.6931C35.7299 51.7946 37.2272 51.7828 38.6821 52.0252C40.6523 52.3534 41.5857 53.773 41.4595 55.908C41.4113 56.7434 41.042 57.5278 40.429 58.0973C39.816 58.6669 39.0066 58.9775 38.1699 58.9643C36.8648 59.0745 35.5578 59.1622 34.2516 59.26C34.2515 56.7377 34.2515 54.2154 34.2515 51.6931Z" fill="#FCC50D"/>
<path d="M34.2358 22.8132C35.4239 22.9173 36.6382 22.6052 37.7948 23.2187C38.4408 23.5394 38.9716 24.0524 39.3142 24.6872C39.6567 25.3219 39.7942 26.0472 39.7078 26.7633C39.6678 27.4527 39.4137 28.1125 38.9807 28.6506C38.5478 29.1887 37.9578 29.5782 37.2929 29.7649C36.2868 29.956 35.2679 30.0723 34.2447 30.1128L34.2358 22.8132Z" fill="#FCC50D"/>
<path d="M48.8315 66.2626C50.1511 66.0926 51.4908 66.3354 52.6668 66.9576C53.3031 67.3628 53.7975 67.956 54.0814 68.6549C54.3653 69.3538 54.4247 70.1238 54.2514 70.8579C54.0691 71.6132 53.6416 72.2867 53.0357 72.7731C52.4297 73.2594 51.6797 73.5311 50.9029 73.5456C50.2086 73.561 49.514 73.5594 48.8196 73.5655L48.8315 66.2626Z" fill="#FCC50D"/>
<path d="M70.6547 66.254C69.9663 66.2559 69.2777 66.2686 68.5896 66.2577C67.8994 66.2532 67.2276 66.0353 66.6662 65.6338C66.1049 65.2323 65.6815 64.6669 65.4543 64.0153C65.2752 63.5702 65.1886 63.0933 65.1997 62.6137C65.2108 62.1341 65.3194 61.6617 65.5188 61.2254C65.7183 60.7891 66.0044 60.3979 66.3599 60.0757C66.7154 59.7535 67.1327 59.507 67.5864 59.3512C68.5767 59.1212 69.5877 58.9927 70.604 58.9677L70.6943 60.0911C70.694 61.8782 70.6937 63.6654 70.6934 65.4526L70.6547 66.254Z" fill="#FCC50D"/>
<path d="M63.416 73.8741C64.2238 73.857 65.0131 74.1173 65.6523 74.6114C66.2916 75.1056 66.7422 75.8038 66.9291 76.5899C67.1254 77.3956 67.0501 78.2436 66.715 79.0021C66.3798 79.7606 65.8035 80.3872 65.0756 80.7845C64.537 80.9622 63.9839 81.0923 63.4225 81.1732C63.4204 78.7402 63.4182 76.3072 63.416 73.8741Z" fill="#FCC50D"/>
<path d="M41.4571 81.1648C39.2263 80.8428 37.9853 79.5272 37.9706 77.4686C37.9551 75.2776 38.9634 74.2457 41.4674 73.8899L41.514 74.6682C41.5141 76.5787 41.5143 78.4892 41.5144 80.3996L41.4571 81.1648Z" fill="#FCC50D"/>
<path d="M41.4627 44.6672C40.5566 44.5724 39.7069 44.1819 39.045 43.5559C38.509 43.068 38.1363 42.4269 37.9777 41.7197C37.819 41.0125 37.882 40.2736 38.1582 39.6035C38.3563 38.9008 38.8009 38.2931 39.4105 37.8915C40.0202 37.4898 40.7541 37.3213 41.4779 37.4167L41.5156 38.2078C41.5155 39.9923 41.5155 41.7768 41.5154 43.5613L41.4627 44.6672Z" fill="#FCC50D"/>
<path d="M34.1852 9.03374C34.1564 7.96506 34.5227 7.58118 35.6036 7.54714C36.7716 7.51034 37.2127 7.91605 37.2261 9.0396C37.2321 9.24096 37.197 9.44143 37.123 9.6288C37.049 9.81616 36.9376 9.9865 36.7957 10.1294C36.6537 10.2724 36.4841 10.3849 36.2973 10.4602C36.1104 10.5355 35.9102 10.5719 35.7088 10.5673C35.508 10.5669 35.3093 10.5268 35.124 10.4495C34.9387 10.3721 34.7704 10.259 34.6289 10.1166C34.4874 9.97411 34.3753 9.80514 34.2992 9.61934C34.2231 9.43353 34.1843 9.23454 34.1852 9.03374Z" fill="#FCC50D"/>
<path d="M41.7065 8.98158C41.7585 9.6012 40.8501 10.5 40.1269 10.5443C39.7309 10.5028 39.3566 10.3427 39.053 10.085C38.7495 9.82722 38.5309 9.48382 38.4258 9.09974C38.4377 8.70102 38.5977 8.32102 38.8745 8.0338C39.1514 7.74657 39.5252 7.57268 39.9232 7.54601C40.1353 7.51871 40.3507 7.53455 40.5565 7.59259C40.7623 7.65063 40.9542 7.74967 41.1208 7.88375C41.2873 8.01784 41.4251 8.18421 41.5257 8.37286C41.6264 8.56152 41.6879 8.76857 41.7065 8.98158Z" fill="#FCC50D"/>
<path d="M41.5142 80.3997C41.5141 78.4892 41.514 76.5787 41.5139 74.6683C41.514 76.5788 41.5141 78.4892 41.5142 80.3997Z" fill="#FCC50D"/>
<path d="M70.6934 65.4526C70.6936 63.6655 70.6938 61.8783 70.694 60.0911C70.6938 61.8783 70.6936 63.6654 70.6934 65.4526Z" fill="#FCC50D"/>
<path d="M41.5154 43.5614C41.5154 41.7769 41.5155 39.9923 41.5155 38.2078C41.5155 39.9923 41.5154 41.7768 41.5154 43.5614Z" fill="#FCC50D"/>
</g>
</svg>
