<svg width="168" height="168" viewBox="0 0 168 168" fill="none" xmlns="http://www.w3.org/2000/svg">
<g opacity="0.15">
<path d="M59.9125 39.9231C59.8747 38.4104 59.7842 36.8966 59.8165 35.3854C59.841 34.239 59.436 33.7498 58.2456 33.7767C55.8223 33.8313 53.3948 33.7295 50.9729 33.8087C49.2499 33.8064 47.5811 33.2061 46.2515 32.1104C45.2425 31.3309 44.4957 30.2618 44.1109 29.0463C43.7261 27.8308 43.7216 26.5267 44.0981 25.3086C44.5362 24.0111 45.3482 22.8722 46.432 22.035C47.5157 21.1979 48.8229 20.7 50.189 20.604C55.5413 20.5022 60.899 20.4805 66.2504 20.6036C68.0238 20.7109 69.695 21.47 70.9424 22.735C72.1899 24.0001 72.9256 25.6816 73.0081 27.4564C73.1063 29.4722 73.031 31.4965 73.0311 33.5169C73.0315 43.2152 73.0433 52.9136 73.0113 62.6117C72.9407 63.5768 72.7986 64.5352 72.586 65.4792C71.3194 65.3123 70.035 65.6073 68.9681 66.3101C67.9012 67.0129 67.1232 68.0765 66.7765 69.3061C66.2932 70.4788 66.1829 71.7719 66.4606 73.0095C66.7383 74.2471 67.3904 75.3691 68.3284 76.2229C69.4868 77.3183 70.9737 78.0018 72.5594 78.1676C72.6353 78.2344 72.7563 78.2878 72.7804 78.3698C74.1424 83.0009 75.8595 84.2692 80.7718 84.306C82.2847 84.3174 83.7971 84.3881 85.3098 84.4317C85.3172 88.577 85.3585 92.7227 85.317 96.8676C85.2919 97.7722 85.4638 98.6716 85.8209 99.5032C86.1781 100.335 86.7118 101.079 87.3852 101.683C88.3568 102.566 89.5733 103.132 90.8738 103.308C92.1744 103.484 93.4976 103.261 94.6687 102.669C95.7937 102.203 96.7376 101.386 97.3593 100.339C97.981 99.2924 98.2469 98.0724 98.1173 96.8619C98.0455 92.7182 98.1277 88.5719 98.1445 84.4267C101.75 84.1511 105.376 84.2869 108.951 84.8315C112.684 85.6349 116.082 87.5633 118.685 90.357C121.289 93.1506 122.973 96.6752 123.512 100.456C123.637 101.363 123.652 102.282 123.556 103.193C121.778 103.237 120.009 103.462 118.276 103.865C117.482 104.137 116.751 104.569 116.129 105.132C115.507 105.696 115.006 106.381 114.657 107.144C114.308 107.908 114.118 108.735 114.099 109.574C114.079 110.413 114.231 111.248 114.544 112.027C114.942 113.167 115.683 114.157 116.665 114.859C117.648 115.562 118.823 115.943 120.031 115.951C121.235 115.97 122.44 115.948 123.645 115.944C123.857 116.581 124.001 117.239 124.073 117.906C124.101 127.698 124.141 137.491 124.06 147.282C124.202 148.617 123.938 149.964 123.301 151.147C122.665 152.329 121.686 153.292 120.493 153.908C119.464 154.391 118.33 154.606 117.195 154.534C116.061 154.462 114.963 154.104 114.004 153.494C113.045 152.885 112.255 152.043 111.708 151.046C111.161 150.05 110.875 148.932 110.875 147.795C110.86 145.882 110.951 143.967 110.99 142.053C111.972 141.912 112.94 141.684 113.883 141.373C115.156 140.678 116.165 139.581 116.751 138.254C117.338 136.926 117.47 135.442 117.126 134.032C116.799 132.657 116.01 131.435 114.892 130.57C113.773 129.705 112.392 129.25 110.978 129.28C110.939 125.031 110.912 120.783 110.857 116.534C110.941 115.019 110.456 113.526 109.496 112.35C108.537 111.174 107.172 110.399 105.671 110.177C104.843 110.017 103.991 110.032 103.17 110.223C102.348 110.413 101.576 110.774 100.903 111.281C100.23 111.789 99.6712 112.433 99.2628 113.17C98.8544 113.908 98.6055 114.723 98.5323 115.563C98.7101 119.704 98.5665 123.859 98.5648 128.009C98.5623 134.384 98.6028 140.761 98.5465 147.136C98.6763 148.651 98.3149 150.167 97.5158 151.461C96.7166 152.755 95.5222 153.756 94.1094 154.318C93.1671 154.66 92.1593 154.781 91.163 154.673C90.1666 154.565 89.2082 154.231 88.361 153.695C87.5137 153.16 86.8001 152.438 86.2748 151.585C85.7494 150.731 85.4262 149.769 85.3299 148.771C85.4133 142.095 85.4047 135.417 85.4342 128.74C86.6494 128.729 87.865 128.732 89.0798 128.705C90.4393 128.679 91.7519 128.204 92.8123 127.353C93.8726 126.502 94.6209 125.323 94.9398 124.001C95.2432 122.716 95.1393 121.369 94.6424 120.146C94.1455 118.923 93.2803 117.885 92.1668 117.176C90.1089 116.087 87.7643 115.662 85.4552 115.959C85.3301 114.552 84.7488 113.224 83.7996 112.177C82.8505 111.13 81.5854 110.421 80.1968 110.159C76.7528 109.291 72.871 112.566 73.007 115.509C73.1842 119.345 73.0618 123.196 73.0094 127.04C72.932 127.808 72.7841 128.567 72.5677 129.307C68.1855 129.93 66.4211 131.736 66.4483 135.57C66.4738 139.173 68.6456 141.475 72.5496 142.038C73.5285 145.107 73.3359 148.43 72.009 151.365C71.3859 152.522 70.4276 153.463 69.2598 154.066C68.0921 154.668 66.7695 154.903 65.4657 154.74C64.123 154.512 62.8762 153.897 61.8785 152.97C60.8808 152.044 60.1758 150.845 59.8501 149.523C59.804 149.121 59.7894 148.716 59.8063 148.311C59.8081 133.742 59.8129 119.173 59.8209 104.605C59.8403 104.302 59.88 104.002 59.9399 103.705C62.2257 103.534 64.513 103.38 66.797 103.187C68.2612 103.211 69.6777 102.667 70.7504 101.67C71.8232 100.674 72.4694 99.3009 72.5538 97.839C72.7747 94.1028 71.1412 91.6183 67.6934 91.044C65.1472 90.6199 62.527 90.6405 59.9397 90.4629C59.894 87.8469 59.8044 85.2308 59.8103 82.6148C59.8328 72.6423 59.872 62.6698 59.928 52.6974C61.7187 52.6264 63.5017 52.4229 65.2623 52.0885C66.4259 51.7618 67.4585 51.0801 68.2161 50.1385C68.9737 49.1968 69.4185 48.0422 69.4884 46.8357C69.6397 45.5825 69.3991 44.3133 68.7996 43.2025C68.2001 42.0917 67.2712 41.1939 66.1406 40.6326C64.1165 39.559 61.9916 40.1052 59.9125 39.9231ZM66.0586 29.6069C66.3923 29.6577 66.7329 29.6387 67.0588 29.5513C67.3848 29.4638 67.6891 29.3098 67.9526 29.0989C68.216 28.8879 68.4329 28.6247 68.5895 28.3257C68.7462 28.0268 68.8391 27.6986 68.8626 27.362C68.8861 27.0253 68.8395 26.6874 68.7259 26.3696C68.6122 26.0518 68.4339 25.7611 68.2023 25.5156C67.9706 25.2702 67.6906 25.0754 67.38 24.9436C67.0693 24.8118 66.7346 24.7458 66.3972 24.7498C65.7011 24.6973 65.0123 24.9203 64.479 25.3707C63.9457 25.8211 63.6106 26.463 63.546 27.158C63.6072 27.7976 63.8934 28.3946 64.3535 28.843C64.8135 29.2914 65.4178 29.5621 66.0586 29.6069Z" fill="#FD9F38"/>
<path d="M98.1446 84.4268C98.1278 88.572 98.0456 92.7183 98.1174 96.862C98.2471 98.0725 97.9811 99.2924 97.3595 100.339C96.7378 101.386 95.7938 102.203 94.6689 102.669C93.4978 103.261 92.1745 103.484 90.874 103.308C89.5735 103.132 88.357 102.566 87.3854 101.683C86.712 101.079 86.1783 100.335 85.8211 99.5033C85.464 98.6717 85.292 97.7724 85.3172 96.8677C85.3586 92.7228 85.3173 88.5772 85.3099 84.4318L98.1446 84.4268Z" fill="#FD9F38"/>
<path d="M59.9396 90.463C62.5269 90.6406 65.1471 90.62 67.6933 91.0441C71.1411 91.6185 72.7746 94.1029 72.5538 97.8391C72.4693 99.301 71.8232 100.674 70.7504 101.67C69.6776 102.667 68.2611 103.211 66.797 103.188C64.513 103.38 62.2257 103.534 59.9398 103.705C59.9398 99.2911 59.9397 94.8771 59.9396 90.463Z" fill="#FD9F38"/>
<path d="M59.9125 39.9232C61.9916 40.1052 64.1165 39.559 66.1406 40.6327C67.2711 41.194 68.2 42.0918 68.7995 43.2026C69.399 44.3134 69.6397 45.5826 69.4884 46.8357C69.4184 48.0423 68.9736 49.1969 68.2161 50.1385C67.4585 51.0802 66.4259 51.7619 65.2623 52.0885C63.5016 52.4229 61.7186 52.6264 59.9279 52.6974L59.9125 39.9232Z" fill="#FD9F38"/>
<path d="M85.4549 115.96C87.764 115.662 90.1086 116.087 92.1666 117.176C93.28 117.885 94.1452 118.923 94.6421 120.146C95.139 121.369 95.243 122.717 94.9396 124.001C94.6207 125.323 93.8724 126.502 92.8121 127.353C91.7517 128.204 90.4391 128.679 89.0797 128.705C87.8647 128.732 86.6492 128.729 85.434 128.74L85.4549 115.96Z" fill="#FD9F38"/>
<path d="M123.646 115.944C122.441 115.948 121.236 115.97 120.032 115.951C118.824 115.943 117.648 115.562 116.666 114.859C115.683 114.157 114.943 113.167 114.545 112.027C114.231 111.248 114.08 110.413 114.099 109.574C114.119 108.735 114.309 107.908 114.658 107.144C115.007 106.381 115.508 105.696 116.13 105.132C116.752 104.569 117.482 104.137 118.276 103.865C120.009 103.462 121.778 103.237 123.557 103.193L123.715 105.159C123.714 108.287 123.714 111.414 123.713 114.542L123.646 115.944Z" fill="#FD9F38"/>
<path d="M110.978 129.28C112.391 129.25 113.773 129.705 114.891 130.57C116.01 131.435 116.799 132.657 117.126 134.032C117.469 135.442 117.338 136.926 116.751 138.254C116.164 139.581 115.156 140.678 113.882 141.373C112.94 141.684 111.972 141.912 110.989 142.053C110.985 137.795 110.982 133.538 110.978 129.28Z" fill="#FD9F38"/>
<path d="M72.5497 142.039C68.6457 141.475 66.4739 139.173 66.4484 135.57C66.4212 131.736 68.1856 129.93 72.5678 129.307L72.6493 130.669C72.6495 134.013 72.6498 137.356 72.65 140.699L72.5497 142.039Z" fill="#FD9F38"/>
<path d="M72.5592 78.1676C70.9736 78.0017 69.4867 77.3183 68.3283 76.2229C67.3903 75.3691 66.7381 74.2471 66.4605 73.0095C66.1828 71.7719 66.2931 70.4788 66.7764 69.3061C67.1231 68.0765 67.9011 67.0128 68.968 66.31C70.0349 65.6072 71.3193 65.3123 72.5859 65.4791L72.6519 66.8636C72.6518 69.9865 72.6517 73.1094 72.6516 76.2323L72.5592 78.1676Z" fill="#FD9F38"/>
<path d="M59.8238 15.8091C59.7735 13.9389 60.4145 13.2671 62.3062 13.2075C64.3502 13.1431 65.122 13.8531 65.1455 15.8193C65.1559 16.1717 65.0945 16.5225 64.965 16.8504C64.8355 17.1783 64.6407 17.4764 64.3922 17.7266C64.1438 17.9767 63.8471 18.1736 63.5201 18.3054C63.1931 18.4371 62.8427 18.5009 62.4902 18.4929C62.1388 18.4921 61.791 18.422 61.4668 18.2867C61.1425 18.1513 60.8481 17.9533 60.6004 17.704C60.3527 17.4547 60.1567 17.159 60.0234 16.8339C59.8902 16.5087 59.8223 16.1605 59.8238 15.8091Z" fill="#FD9F38"/>
<path d="M72.9863 15.7178C73.0774 16.8021 71.4875 18.375 70.222 18.4525C69.5289 18.3799 68.8739 18.0998 68.3428 17.6487C67.8116 17.1976 67.429 16.5967 67.2451 15.9246C67.266 15.2268 67.546 14.5618 68.0304 14.0592C68.5148 13.5565 69.169 13.2522 69.8655 13.2055C70.2367 13.1578 70.6136 13.1855 70.9738 13.2871C71.3339 13.3886 71.6698 13.5619 71.9613 13.7966C72.2528 14.0312 72.4938 14.3224 72.6699 14.6525C72.8461 14.9827 72.9537 15.345 72.9863 15.7178Z" fill="#FD9F38"/>
<path d="M72.6498 140.699C72.6496 137.356 72.6494 134.013 72.6491 130.669C72.6494 134.013 72.6496 137.356 72.6498 140.699Z" fill="#FD9F38"/>
<path d="M123.713 114.542C123.713 111.415 123.714 108.287 123.714 105.16C123.714 108.287 123.713 111.415 123.713 114.542Z" fill="#FD9F38"/>
<path d="M72.652 76.2323C72.6521 73.1094 72.6522 69.9865 72.6523 66.8636C72.6522 69.9865 72.6521 73.1094 72.652 76.2323Z" fill="#FD9F38"/>
</g>
</svg>
