<svg width="132" height="132" viewBox="0 0 132 132" fill="none" xmlns="http://www.w3.org/2000/svg">
<g opacity="0.15">
<path d="M47.074 31.368C47.0444 30.1794 46.9733 28.99 46.9986 27.8026C47.0179 26.9019 46.6997 26.5175 45.7643 26.5386C43.8603 26.5816 41.953 26.5015 40.0501 26.5638C38.6963 26.562 37.3852 26.0904 36.3404 25.2294C35.5477 24.6169 34.9609 23.777 34.6585 22.8219C34.3562 21.8669 34.3527 20.8422 34.6485 19.8851C34.9927 18.8657 35.6307 17.9708 36.4822 17.3131C37.3338 16.6553 38.3608 16.2641 39.4342 16.1887C43.6396 16.1087 47.8492 16.0916 52.0539 16.1883C53.4473 16.2726 54.7603 16.8691 55.7404 17.8631C56.7206 18.857 57.2987 20.1783 57.3635 21.5727C57.4406 23.1565 57.3815 24.747 57.3816 26.3346C57.3819 33.9546 57.3911 41.5748 57.366 49.1948C57.3105 49.953 57.1989 50.7061 57.0319 51.4477C56.0366 51.3166 55.0275 51.5484 54.1892 52.1006C53.3509 52.6528 52.7396 53.4885 52.4672 54.4546C52.0875 55.376 52.0009 56.392 52.219 57.3644C52.4372 58.3368 52.9496 59.2184 53.6866 59.8893C54.5967 60.7499 55.765 61.2869 57.0109 61.4172C57.0706 61.4697 57.1656 61.5117 57.1846 61.5761C58.2547 65.2148 59.6039 66.2113 63.4636 66.2403C64.6522 66.2492 65.8406 66.3048 67.0291 66.339C67.0349 69.5961 67.0674 72.8534 67.0348 76.11C67.015 76.8209 67.1501 77.5275 67.4307 78.1809C67.7113 78.8342 68.1307 79.4188 68.6598 79.8939C69.4232 80.587 70.379 81.0321 71.4009 81.1703C72.4227 81.3086 73.4624 81.1334 74.3825 80.668C75.2664 80.3023 76.0081 79.6601 76.4966 78.8377C76.985 78.0152 77.194 77.0567 77.0921 76.1056C77.0357 72.8498 77.1003 69.592 77.1135 66.3351C79.9467 66.1185 82.7953 66.2252 85.6043 66.6531C88.5376 67.2843 91.207 68.7995 93.2526 70.9946C95.2983 73.1896 96.6219 75.9589 97.0452 78.9294C97.1432 79.6424 97.1549 80.3646 97.0801 81.0804C95.6827 81.1148 94.2924 81.2915 92.9308 81.6077C92.3069 81.822 91.7331 82.1609 91.2444 82.6039C90.7556 83.047 90.3622 83.5848 90.0879 84.1848C89.8136 84.7847 89.6643 85.4342 89.6491 86.0937C89.6338 86.7532 89.7529 87.4089 89.9992 88.0209C90.3116 88.9169 90.8937 89.6943 91.6656 90.2463C92.4374 90.7984 93.3612 91.098 94.3102 91.1041C95.2564 91.1192 96.2032 91.1017 97.1497 91.099C97.3166 91.5994 97.4292 92.1162 97.4857 92.6406C97.5077 100.334 97.5394 108.028 97.4757 115.721C97.5875 116.771 97.3797 117.829 96.8796 118.758C96.3794 119.687 95.6102 120.443 94.6727 120.928C93.8643 121.307 92.9732 121.476 92.082 121.419C91.1908 121.362 90.3284 121.081 89.5747 120.602C88.8211 120.123 88.2006 119.462 87.7708 118.679C87.3409 117.896 87.1157 117.018 87.116 116.125C87.1045 114.621 87.1757 113.117 87.2061 111.613C87.9779 111.502 88.7386 111.323 89.4791 111.078C90.48 110.532 91.2724 109.671 91.7332 108.628C92.1941 107.585 92.2976 106.419 92.0277 105.311C91.7706 104.23 91.151 103.27 90.2721 102.591C89.3931 101.911 88.3079 101.553 87.1972 101.577C87.1664 98.2387 87.1451 94.9004 87.1019 91.5625C87.1681 90.3717 86.7868 89.1991 86.0329 88.2749C85.279 87.3507 84.2069 86.7416 83.027 86.5672C82.3767 86.4414 81.7071 86.4537 81.0618 86.6032C80.4165 86.7527 79.8097 87.0362 79.2809 87.4352C78.7521 87.8341 78.3131 88.3398 77.9922 88.9193C77.6713 89.4988 77.4757 90.1393 77.4182 90.7992C77.5579 94.0532 77.4451 97.3179 77.4438 100.578C77.4418 105.588 77.4736 110.597 77.4294 115.607C77.5314 116.797 77.2474 117.988 76.6195 119.005C75.9916 120.021 75.0532 120.808 73.9431 121.25C73.2027 121.518 72.4109 121.613 71.628 121.529C70.8452 121.444 70.0921 121.181 69.4264 120.761C68.7608 120.34 68.2001 119.773 67.7873 119.102C67.3745 118.432 67.1206 117.675 67.0449 116.892C67.1104 111.646 67.1037 106.399 67.1268 101.152C68.0816 101.144 69.0367 101.146 69.9913 101.125C71.0594 101.105 72.0908 100.731 72.9239 100.063C73.7571 99.394 74.345 98.4679 74.5956 97.4294C74.8339 96.4199 74.7523 95.3613 74.3618 94.4003C73.9714 93.4393 73.2916 92.6237 72.4167 92.0665C70.7998 91.2109 68.9576 90.8771 67.1433 91.1108C67.0451 90.0048 66.5883 88.9612 65.8426 88.1386C65.0968 87.3161 64.1028 86.7595 63.0117 86.5537C60.3058 85.8712 57.2558 88.4442 57.3626 90.7566C57.5019 93.7707 57.4057 96.7969 57.3645 99.8172C57.3037 100.42 57.1875 101.017 57.0174 101.598C53.5743 102.088 52.188 103.507 52.2093 106.519C52.2294 109.35 53.9358 111.159 57.0032 111.601C57.7724 114.013 57.621 116.623 56.5785 118.929C56.0889 119.838 55.336 120.578 54.4184 121.051C53.5009 121.525 52.4617 121.709 51.4373 121.581C50.3824 121.402 49.4027 120.919 48.6188 120.191C47.8349 119.463 47.281 118.521 47.0251 117.482C46.9888 117.166 46.9773 116.848 46.9907 116.53C46.992 105.083 46.9959 93.6361 47.0021 82.1892C47.0174 81.9517 47.0486 81.7156 47.0956 81.4823C48.8916 81.3479 50.6888 81.2273 52.4834 81.0757C53.6338 81.0938 54.7467 80.6668 55.5896 79.8836C56.4325 79.1005 56.9402 78.0219 57.0066 76.8733C57.1801 73.9377 55.8966 71.9857 53.1876 71.5344C51.1871 71.2012 49.1283 71.2173 47.0955 71.0778C47.0595 69.0224 46.9891 66.9669 46.9938 64.9114C47.0115 57.0759 47.0423 49.2404 47.0862 41.4049C48.4932 41.3491 49.8942 41.1892 51.2775 40.9265C52.1918 40.6698 53.0031 40.1342 53.5984 39.3943C54.1936 38.6545 54.5431 37.7473 54.598 36.7993C54.7169 35.8147 54.5278 34.8174 54.0568 33.9447C53.5858 33.0719 52.8559 32.3665 51.9676 31.9255C50.3773 31.0819 48.7076 31.511 47.074 31.368ZM51.9032 23.2624C52.1654 23.3023 52.4329 23.2874 52.6891 23.2187C52.9452 23.15 53.1843 23.0289 53.3913 22.8632C53.5983 22.6975 53.7687 22.4906 53.8918 22.2558C54.0148 22.0209 54.0879 21.763 54.1063 21.4985C54.1248 21.234 54.0882 20.9685 53.9989 20.7188C53.9096 20.4691 53.7695 20.2407 53.5875 20.0478C53.4055 19.855 53.1855 19.7019 52.9414 19.5984C52.6973 19.4948 52.4343 19.4429 52.1692 19.4461C51.6223 19.4048 51.081 19.58 50.662 19.9339C50.243 20.2879 49.9798 20.7922 49.929 21.3383C49.9771 21.8408 50.2019 22.3099 50.5634 22.6622C50.9249 23.0145 51.3996 23.2272 51.9032 23.2624Z" fill="white"/>
<path d="M77.1136 66.3354C77.1004 69.5924 77.0359 72.8502 77.0923 76.106C77.1941 77.0571 76.9852 78.0156 76.4967 78.8381C76.0083 79.6605 75.2666 80.3027 74.3827 80.6684C73.4626 81.1338 72.4228 81.3089 71.401 81.1707C70.3792 81.0325 69.4234 80.5874 68.6599 79.8943C68.1309 79.4192 67.7115 78.8347 67.4309 78.1813C67.1503 77.5279 67.0152 76.8213 67.0349 76.1105C67.0675 72.8538 67.035 69.5965 67.0292 66.3394L77.1136 66.3354Z" fill="white"/>
<path d="M47.0954 71.0781C49.1283 71.2176 51.187 71.2015 53.1876 71.5347C55.8966 71.986 57.18 73.938 57.0065 76.8736C56.9401 78.0223 56.4325 79.1008 55.5896 79.8839C54.7467 80.6671 53.6337 81.0942 52.4833 81.076C50.6887 81.2276 48.8916 81.3481 47.0956 81.4826C47.0955 78.0145 47.0955 74.5463 47.0954 71.0781Z" fill="white"/>
<path d="M47.0741 31.3682C48.7076 31.5112 50.3772 31.0821 51.9676 31.9257C52.8559 32.3667 53.5857 33.0721 54.0567 33.9448C54.5278 34.8176 54.7169 35.8149 54.598 36.7995C54.543 37.7475 54.1935 38.6547 53.5983 39.3945C53.003 40.1344 52.1917 40.67 51.2775 40.9267C49.8941 41.1894 48.4932 41.3493 47.0862 41.4051L47.0741 31.3682Z" fill="white"/>
<path d="M67.1431 91.1112C68.9575 90.8774 70.7996 91.2113 72.4166 92.0668C73.2915 92.624 73.9712 93.4397 74.3617 94.4007C74.7521 95.3616 74.8338 96.4203 74.5954 97.4298C74.3448 98.4683 73.7569 99.3944 72.9238 100.063C72.0907 100.732 71.0593 101.105 69.9912 101.125C69.0366 101.147 68.0815 101.144 67.1267 101.153L67.1431 91.1112Z" fill="white"/>
<path d="M97.1502 91.0992C96.2036 91.1019 95.2568 91.1194 94.3106 91.1043C93.3616 91.0982 92.4378 90.7986 91.666 90.2465C90.8941 89.6945 90.312 88.9171 89.9995 88.021C89.7533 87.409 89.6342 86.7533 89.6495 86.0939C89.6647 85.4344 89.814 84.7849 90.0883 84.185C90.3625 83.585 90.756 83.0471 91.2448 82.6041C91.7335 82.1611 92.3073 81.8221 92.9312 81.6079C94.2928 81.2917 95.6831 81.115 97.0805 81.0806L97.2046 82.6253C97.2042 85.0826 97.2038 87.54 97.2034 89.9973L97.1502 91.0992Z" fill="white"/>
<path d="M87.1968 101.577C88.3075 101.554 89.3928 101.912 90.2717 102.591C91.1507 103.27 91.7703 104.231 92.0273 105.311C92.2973 106.419 92.1937 107.585 91.7329 108.628C91.272 109.671 90.4796 110.533 89.4788 111.079C88.7382 111.323 87.9776 111.502 87.2057 111.614C87.2028 108.268 87.1998 104.923 87.1968 101.577Z" fill="white"/>
<path d="M57.0033 111.602C53.9359 111.159 52.2295 109.35 52.2094 106.519C52.1881 103.507 53.5744 102.088 57.0175 101.599L57.0816 102.669C57.0818 105.296 57.082 107.923 57.0821 110.55L57.0033 111.602Z" fill="white"/>
<path d="M57.0108 61.4174C55.7649 61.2871 54.5967 60.7501 53.6865 59.8894C52.9495 59.2186 52.4371 58.337 52.2189 57.3646C52.0008 56.3922 52.0874 55.3762 52.4672 54.4548C52.7396 53.4886 53.3509 52.653 54.1891 52.1007C55.0274 51.5485 56.0366 51.3168 57.0318 51.4479L57.0836 52.5357C57.0835 54.9894 57.0835 57.4431 57.0834 59.8968L57.0108 61.4174Z" fill="white"/>
<path d="M47.0044 12.4212C46.9648 10.9518 47.4685 10.424 48.9549 10.3772C50.5608 10.3266 51.1672 10.8844 51.1857 12.4293C51.1939 12.7062 51.1457 12.9818 51.0439 13.2394C50.9422 13.4971 50.7891 13.7313 50.5939 13.9278C50.3987 14.1244 50.1655 14.2791 49.9086 14.3826C49.6517 14.4861 49.3764 14.5363 49.0995 14.5299C48.8234 14.5293 48.5501 14.4743 48.2953 14.3679C48.0405 14.2615 47.8092 14.106 47.6146 13.9101C47.42 13.7142 47.2659 13.4819 47.1612 13.2264C47.0565 12.9709 47.0033 12.6973 47.0044 12.4212Z" fill="white"/>
<path d="M57.3463 12.3497C57.4179 13.2017 56.1687 14.4375 55.1744 14.4984C54.6298 14.4414 54.1152 14.2212 53.6978 13.8668C53.2805 13.5124 52.9799 13.0403 52.8354 12.5122C52.8518 11.9639 53.0718 11.4414 53.4524 11.0465C53.833 10.6515 54.347 10.4124 54.8943 10.3758C55.1859 10.3382 55.4821 10.36 55.7651 10.4398C56.048 10.5196 56.3119 10.6558 56.541 10.8402C56.77 11.0245 56.9594 11.2533 57.0978 11.5127C57.2362 11.7721 57.3207 12.0568 57.3463 12.3497Z" fill="white"/>
<path d="M57.082 110.55C57.0818 107.923 57.0816 105.296 57.0814 102.669C57.0816 105.296 57.0818 107.923 57.082 110.55Z" fill="white"/>
<path d="M97.2028 89.9976C97.2032 87.5402 97.2036 85.0828 97.204 82.6255C97.2036 85.0828 97.2032 87.5401 97.2028 89.9976Z" fill="white"/>
<path d="M57.0836 59.8968C57.0837 57.4431 57.0838 54.9894 57.0839 52.5356C57.0838 54.9893 57.0837 57.443 57.0836 59.8968Z" fill="white"/>
</g>
</svg>
