<svg width="48" height="48" viewBox="0 0 48 48" fill="none" xmlns="http://www.w3.org/2000/svg">
<path d="M4.92877 18.733L7.32375 20.6575C7.42305 20.7384 7.4999 20.8434 7.54694 20.9625C7.59397 21.0816 7.60962 21.2108 7.59236 21.3377C6.91504 26.5778 8.26504 31.1853 11.349 34.4721C11.438 34.5663 11.5497 34.6361 11.6734 34.6746C11.7972 34.7132 11.9288 34.7192 12.0555 34.6922C12.1823 34.6652 12.3 34.606 12.3972 34.5203C12.4945 34.4346 12.5681 34.3254 12.6109 34.203C13.5401 31.5241 14.4772 28.8215 15.4819 25.9243C15.5219 25.8063 15.532 25.6802 15.5114 25.5573C15.4908 25.4345 15.4401 25.3186 15.3638 25.22C14.9444 24.6078 14.4593 24.0433 13.9173 23.5364C11.3171 21.3573 8.64436 19.265 6.01833 17.1163C5.30542 16.533 4.63299 15.9002 3.91383 15.243C3.78311 15.1265 3.69748 14.9678 3.67188 14.7945C3.64628 14.6213 3.68235 14.4446 3.77377 14.2953C4.77911 12.8182 6.04626 11.5375 7.51261 10.5166C7.64123 10.422 7.79656 10.3705 7.95626 10.3697C8.11595 10.3689 8.27179 10.4188 8.40136 10.5121C9.34053 11.1843 10.2481 11.8218 11.1319 12.4907C12.2419 13.3307 13.3251 14.2063 14.415 15.0726C19.6055 19.1981 25.2381 19.1364 30.6734 15.8296C32.8938 14.4787 34.8871 12.7556 36.9915 11.2125C37.6219 10.7502 38.2678 10.3093 38.9245 9.85405C39.0451 9.76913 39.188 9.72131 39.3355 9.71648C39.483 9.71166 39.6287 9.75003 39.7547 9.82689C41.1973 10.8042 42.4613 12.0222 43.4915 13.4276C43.5976 13.5636 43.6539 13.7318 43.6509 13.9043C43.6479 14.0767 43.5859 14.2429 43.4751 14.3751C42.9894 14.9582 42.522 15.5263 42.0331 16.0752C40.3561 17.9578 38.525 19.7214 37.0045 21.7219C32.4051 27.7731 30.921 34.309 34.0285 41.42C34.1016 41.5789 34.1166 41.7584 34.0709 41.9272C34.0252 42.0961 33.9218 42.2436 33.7786 42.344C27.8933 46.2666 18.0176 45.9347 11.1426 40.6203C4.26917 35.3073 1.55463 25.8412 3.73879 19.0899C3.7764 18.9736 3.84167 18.8682 3.929 18.7828C4.01632 18.6973 4.1231 18.6343 4.24014 18.5992C4.35718 18.5641 4.481 18.5579 4.60094 18.5813C4.72089 18.6046 4.83339 18.6567 4.92877 18.733Z" fill="#FD9F38"/>
<path d="M25.2561 17.1586C25.199 17.1635 25.1416 17.1637 25.0844 17.1592C19.6049 16.7197 17.1561 8.96489 21.4057 4.71942C21.9478 4.11715 22.624 3.65077 23.3796 3.35791C24.1351 3.06505 24.949 2.95391 25.7554 3.03346C26.5618 3.113 27.3383 3.38101 28.0221 3.81586C28.7059 4.2507 29.2779 4.8402 29.6919 5.53678C32.6688 10.0324 30.5232 16.7027 25.2561 17.1586Z" fill="#FD9F38"/>
<path d="M36.694 39.4776C36.0893 38.3698 35.8201 37.1099 35.9193 35.8518C35.9261 35.6734 35.9969 35.5035 36.1186 35.373C39.6154 31.5732 40.9264 26.9675 40.5966 21.6719C40.5898 21.5702 40.6041 21.4681 40.6384 21.3721C40.6727 21.276 40.7264 21.1881 40.7961 21.1136L42.9575 18.828C43.0421 18.7369 43.1482 18.6683 43.2661 18.6287C43.3841 18.589 43.51 18.5795 43.6325 18.601C43.7551 18.6224 43.8703 18.6742 43.9677 18.7516C44.0651 18.829 44.1416 18.9295 44.1902 19.044C46.2683 24.2866 44.4177 34.1434 37.8133 39.6761C37.7296 39.7441 37.6322 39.7934 37.5278 39.8204C37.4234 39.8475 37.3144 39.8518 37.2082 39.8329C37.102 39.8141 37.0011 39.7726 36.9124 39.7113C36.8236 39.65 36.7492 39.5702 36.694 39.4776Z" fill="#FD9F38"/>
<path d="M10.1237 8.30025C12.2321 6.3935 14.7251 4.9612 17.4342 4.1C17.5666 4.06163 17.7069 4.06021 17.84 4.09589C17.973 4.13157 18.0938 4.20298 18.1892 4.30239C18.2846 4.40181 18.351 4.52543 18.3811 4.65987C18.4113 4.79431 18.4041 4.93444 18.3603 5.06508L17.2107 8.46122C17.1574 8.61852 17.0535 8.7537 16.9151 8.84555L13.3313 11.225C13.2021 11.3108 13.0495 11.3544 12.8946 11.3499C12.7396 11.3454 12.5899 11.2929 12.4659 11.1998L10.1642 9.47044C10.0744 9.40299 10.0008 9.3163 9.94894 9.21673C9.89704 9.11716 9.86809 9.00724 9.8642 8.89502C9.86032 8.7828 9.88161 8.67114 9.92651 8.56822C9.97141 8.4653 10.0388 8.37374 10.1237 8.30025Z" fill="#FD9F38"/>
<path d="M36.3867 8.25921L34.5413 9.82292C34.4444 9.90501 34.3283 9.96116 34.2038 9.98611C34.0793 10.0111 33.9505 10.004 33.8295 9.96556C33.7085 9.92713 33.5992 9.85861 33.5119 9.76641C33.4246 9.67421 33.3621 9.56136 33.3303 9.43842L32.4781 6.14157C32.4422 6.00037 32.448 5.85179 32.4949 5.71383C32.5417 5.57586 32.6275 5.45444 32.742 5.36427C32.8564 5.2741 32.9945 5.21904 33.1396 5.20578C33.2847 5.19251 33.4305 5.2216 33.5594 5.28952C34.531 5.8128 35.4606 6.41048 36.3399 7.07722C36.4321 7.1441 36.5078 7.23102 36.5616 7.33142C36.6153 7.43182 36.6455 7.5431 36.65 7.65687C36.6545 7.77065 36.6332 7.88396 36.5875 7.98829C36.5419 8.09262 36.4732 8.18525 36.3867 8.25921Z" fill="#FD9F38"/>
</svg>
