<svg width="256" height="360" viewBox="0 0 256 360" fill="none" xmlns="http://www.w3.org/2000/svg">
<rect width="256" height="360" rx="8" fill="#CED4DA"/>
<path d="M69.8781 181.02L77.1771 187.001C77.4797 187.252 77.7139 187.579 77.8573 187.949C78.0006 188.319 78.0483 188.72 77.9957 189.115C75.9315 205.399 80.0458 219.718 89.4444 229.932C89.7156 230.225 90.0561 230.442 90.4332 230.561C90.8104 230.681 91.2114 230.7 91.5977 230.616C91.9841 230.532 92.3427 230.348 92.6391 230.082C92.9355 229.816 93.1597 229.476 93.2901 229.096C96.122 220.771 98.9781 212.372 102.04 203.368C102.162 203.002 102.193 202.61 102.13 202.228C102.067 201.846 101.913 201.486 101.68 201.18C100.402 199.277 98.9236 197.523 97.2717 195.948C89.3474 189.176 81.2018 182.674 73.1987 175.996C71.026 174.183 68.9767 172.217 66.785 170.175C66.3866 169.812 66.1256 169.319 66.0476 168.781C65.9696 168.243 66.0795 167.693 66.3582 167.229C69.422 162.639 73.2838 158.659 77.7527 155.487C78.1447 155.192 78.618 155.033 79.1047 155.03C79.5914 155.028 80.0664 155.182 80.4612 155.473C83.3234 157.561 86.0893 159.543 88.783 161.621C92.1657 164.232 95.4667 166.953 98.7883 169.645C114.607 182.466 131.773 182.274 148.338 171.997C155.105 167.799 161.179 162.445 167.593 157.649C169.514 156.213 171.482 154.842 173.484 153.428C173.851 153.164 174.287 153.015 174.736 153C175.186 152.985 175.63 153.104 176.014 153.343C180.41 156.38 184.263 160.165 187.402 164.533C187.726 164.955 187.897 165.478 187.888 166.014C187.879 166.55 187.69 167.066 187.352 167.477C185.872 169.289 184.448 171.055 182.958 172.761C177.847 178.611 172.266 184.092 167.632 190.309C153.615 209.114 149.092 229.425 158.563 251.524C158.785 252.017 158.831 252.575 158.692 253.1C158.553 253.625 158.237 254.083 157.801 254.395C139.865 266.585 109.768 265.554 88.8154 249.038C67.8679 232.527 59.5951 203.11 66.2516 182.129C66.3662 181.768 66.5651 181.44 66.8312 181.175C67.0974 180.909 67.4228 180.714 67.7795 180.604C68.1362 180.495 68.5135 180.476 68.8791 180.549C69.2446 180.621 69.5875 180.783 69.8781 181.02Z" fill="#DEE2E6"/>
<path d="M131.828 176.128C131.654 176.143 131.479 176.144 131.305 176.13C114.605 174.764 107.142 150.664 120.093 137.471C121.746 135.599 123.806 134.15 126.109 133.24C128.412 132.33 130.892 131.984 133.35 132.231C135.807 132.479 138.174 133.312 140.258 134.663C142.342 136.014 144.085 137.846 145.347 140.011C154.419 153.982 147.88 174.711 131.828 176.128Z" fill="#DEE2E6"/>
<path d="M166.687 245.487C164.844 242.045 164.023 238.129 164.326 234.22C164.347 233.665 164.562 233.137 164.933 232.732C175.59 220.923 179.585 206.61 178.58 190.153C178.56 189.837 178.603 189.52 178.708 189.222C178.812 188.923 178.976 188.65 179.188 188.418L185.775 181.315C186.033 181.032 186.357 180.819 186.716 180.696C187.075 180.573 187.459 180.543 187.833 180.61C188.206 180.677 188.557 180.838 188.854 181.078C189.151 181.319 189.384 181.631 189.532 181.987C195.865 198.279 190.226 228.91 170.098 246.104C169.843 246.316 169.546 246.469 169.228 246.553C168.91 246.637 168.577 246.65 168.254 246.592C167.93 246.533 167.623 246.404 167.352 246.214C167.082 246.023 166.855 245.775 166.687 245.487Z" fill="#DEE2E6"/>
<path d="M85.709 148.599C92.1347 142.673 99.7322 138.222 107.989 135.546C108.392 135.427 108.82 135.422 109.225 135.533C109.631 135.644 109.999 135.866 110.29 136.175C110.58 136.484 110.783 136.868 110.874 137.286C110.966 137.704 110.944 138.139 110.811 138.545L107.307 149.099C107.145 149.588 106.828 150.008 106.407 150.293L95.4844 157.688C95.0908 157.954 94.6259 158.09 94.1536 158.076C93.6813 158.062 93.2249 157.899 92.8471 157.61L85.8323 152.235C85.5587 152.026 85.3346 151.756 85.1764 151.447C85.0183 151.138 84.93 150.796 84.9182 150.447C84.9064 150.098 84.9712 149.751 85.1081 149.432C85.2449 149.112 85.4502 148.827 85.709 148.599Z" fill="#DEE2E6"/>
<path d="M165.75 148.471L160.126 153.331C159.831 153.586 159.477 153.76 159.097 153.838C158.718 153.915 158.325 153.893 157.957 153.774C157.588 153.655 157.255 153.442 156.989 153.155C156.723 152.869 156.532 152.518 156.435 152.136L153.838 141.89C153.729 141.452 153.747 140.99 153.889 140.561C154.032 140.132 154.294 139.755 154.642 139.475C154.991 139.195 155.412 139.024 155.854 138.982C156.296 138.941 156.741 139.031 157.134 139.243C160.095 140.869 162.928 142.726 165.607 144.798C165.888 145.006 166.119 145.276 166.283 145.588C166.447 145.9 166.539 146.246 166.552 146.599C166.566 146.953 166.501 147.305 166.362 147.629C166.223 147.954 166.014 148.241 165.75 148.471Z" fill="#DEE2E6"/>
</svg>
