<svg width="96" height="96" viewBox="0 0 96 96" fill="none" xmlns="http://www.w3.org/2000/svg">
<g opacity="0.2">
<path d="M51.7678 42.387C51.7624 42.4028 51.7562 42.4182 51.7493 42.4333C51.7724 42.4657 51.8002 42.5028 51.828 42.5352C51.8032 42.4879 51.783 42.4382 51.7678 42.387Z" fill="#F9879F"/>
<path d="M49.0149 44.4145C49.7085 43.621 50.8287 43.2181 51.1131 42.0391C51.2068 41.6507 51.3247 41.8867 51.484 42.092C52.2177 43.0384 52.9215 44.0641 54.2242 44.275C54.8933 44.3833 55.5822 44.3691 56.2622 44.4102C56.2775 48.6881 56.3012 52.966 56.3063 57.2439C56.3138 63.6042 56.2996 69.9646 56.3153 76.3249C56.3605 76.9513 56.2628 77.5798 56.0298 78.1631C55.7967 78.7463 55.4343 79.269 54.9698 79.6918C54.6112 80.0207 54.1904 80.2747 53.7323 80.4389C53.2742 80.603 52.7879 80.674 52.302 80.6478C51.816 80.6215 51.3402 80.4984 50.9025 80.2858C50.4647 80.0732 50.0738 79.7754 49.7527 79.4097C49.2462 78.8546 48.9771 78.1234 49.0029 77.3724C49.0415 75.87 49.0136 74.366 49.0137 72.8626C49.014 63.3799 49.0144 53.8972 49.0149 44.4145Z" fill="#FCD1DA"/>
<path d="M39.3058 44.4432C40.1594 44.5486 41.0258 44.4334 41.8223 44.1086C42.248 43.9391 42.6357 43.6865 42.9627 43.3655C43.2896 43.0445 43.5494 42.6616 43.7267 42.2391C43.887 41.7743 43.8868 41.7321 44.2604 42.1893C44.9848 42.9813 45.7614 43.7237 46.5853 44.4116C46.5843 55.0463 46.5856 65.6809 46.5889 76.3156C46.6364 76.9418 46.5406 77.5707 46.3091 78.1545C46.0775 78.7383 45.7161 79.2617 45.2523 79.6852C44.8961 80.0179 44.4767 80.2757 44.0189 80.443C43.5611 80.6103 43.0743 80.6837 42.5875 80.659C42.1008 80.6342 41.6239 80.5118 41.1855 80.2989C40.747 80.0861 40.3558 79.7871 40.0353 79.42C39.5084 78.8092 39.2363 78.0194 39.2751 77.2137C39.3004 66.2902 39.3106 55.3668 39.3058 44.4432Z" fill="#FCD1DA"/>
<path d="M29.6027 42.684C29.9967 42.8899 30.3728 43.1283 30.7272 43.3967C31.1126 43.8033 31.5925 44.1084 32.1243 44.2849C32.656 44.4613 33.2231 44.5037 33.7752 44.4082C34.3272 44.3126 34.8472 44.0822 35.2887 43.7374C35.7303 43.3925 36.0798 42.9439 36.3062 42.4314C36.4182 42.2339 36.5131 42.0267 36.6159 41.8239L36.8678 42.3237C36.8639 51.2258 36.8632 60.128 36.8657 69.0301C36.9083 69.6857 36.7974 70.3422 36.5419 70.9475C36.2864 71.5527 35.8934 72.0901 35.3939 72.5169C34.9881 72.857 34.5127 73.1042 34.0012 73.2411C33.4897 73.3779 32.9544 73.4011 32.433 73.3091C31.9115 73.217 31.4165 73.0119 30.9828 72.7082C30.549 72.4045 30.1871 72.0095 29.9222 71.5509C29.694 71.095 29.5756 70.5919 29.5765 70.082C29.57 60.9493 29.5788 51.8167 29.6027 42.684Z" fill="#FCD1DA"/>
<path d="M58.7807 42.6841C59.1579 42.9192 59.3536 41.4771 59.6803 41.7689C61.6102 43.4931 64.1806 44.7279 65.4818 42.4356C65.594 42.2379 65.6882 42.03 65.7907 41.8269L66.0471 42.3188C66.0427 51.2216 66.0406 60.1243 66.0409 69.0271C66.087 69.6535 65.9903 70.2822 65.7579 70.8657C65.5256 71.4492 65.1637 71.9723 64.6996 72.3955C64.3407 72.724 63.92 72.9778 63.4621 73.1421C63.0041 73.3063 62.5181 73.3778 62.0322 73.3523C61.5463 73.3268 61.0704 73.2048 60.6322 72.9935C60.194 72.7822 59.8022 72.4858 59.4797 72.1215C58.9519 71.5098 58.6819 70.7172 58.7264 69.9105C58.7589 66.4422 58.7349 62.9734 58.7408 59.5047C58.7503 53.8978 58.7636 48.2909 58.7807 42.6841Z" fill="#FCD1DA"/>
<path d="M29.2009 42.3645C29.1943 42.2034 29.2012 42.042 29.2218 41.8821C29.265 41.735 29.3218 41.5923 29.3913 41.4557C29.4612 41.5923 29.5182 41.7352 29.5615 41.8824C29.5818 42.0423 29.5883 42.2037 29.581 42.3647L29.2009 42.3645Z" fill="#FCD1DA"/>
<path d="M58.3796 42.3649L58.5705 41.7689L58.7588 42.365L58.3796 42.3649Z" fill="#FCD1DA"/>
<path d="M70.5576 36.8385C70.2901 36.8385 70.0233 36.8649 69.761 36.9172C69.5547 36.6199 69.4626 36.2581 69.5016 35.8983C69.4932 34.6959 69.3597 33.4976 69.1033 32.3228C67.9753 27.5414 65.2824 23.2738 61.4521 20.1976C59.1253 18.2853 56.4205 16.8866 53.5151 16.0932C50.6097 15.2998 47.5693 15.1296 44.5935 15.5939C41.7613 15.9706 39.0353 16.9192 36.5811 18.3821C33.4431 20.2045 30.8111 22.7831 28.9246 25.883C27.0381 28.9828 25.9573 32.5054 25.7805 36.1299C25.777 36.3815 25.7067 36.6277 25.5767 36.8431C25.5321 36.8393 25.4872 36.8377 25.4424 36.8385C24.7068 36.8389 23.9853 37.0397 23.3553 37.4194C22.7253 37.7991 22.2106 38.3433 21.8666 38.9934C21.5226 39.6436 21.3623 40.3753 21.4029 41.1097C21.4435 41.8442 21.6834 42.5537 22.0969 43.162C22.5105 43.7704 23.0819 44.2545 23.7499 44.5625C24.4179 44.8705 25.1572 44.9906 25.8884 44.9099C26.6195 44.8293 27.3149 44.551 27.8997 44.1048C28.4846 43.6587 28.9368 43.0616 29.2078 42.3778C29.5063 43.1308 30.0238 43.7769 30.6934 44.2327C31.363 44.6884 32.1539 44.9329 32.9638 44.9344C33.7738 44.9359 34.5656 44.6944 35.2369 44.2411C35.9082 43.7878 36.4281 43.1436 36.7293 42.3917C37.0307 43.1429 37.5502 43.7865 38.2207 44.2397C38.8913 44.6929 39.6823 44.9349 40.4916 44.9344C41.301 44.9339 42.0917 44.691 42.7617 44.2369C43.4317 43.7829 43.9504 43.1386 44.2508 42.3871C44.5491 43.1349 45.0637 43.7768 45.7288 44.2305C46.3939 44.6843 47.1793 44.9293 47.9844 44.9343C48.7895 44.9393 49.5778 44.7039 50.2485 44.2584C50.9191 43.8129 51.4417 43.1775 51.7492 42.4334C51.7561 42.4183 51.7623 42.4028 51.7677 42.3871C51.783 42.4383 51.8031 42.4879 51.8279 42.5352C52.134 43.2221 52.6255 43.8101 53.2473 44.2332C53.869 44.6563 54.5963 44.8978 55.3477 44.9305C56.099 44.9632 56.8446 44.7859 57.5007 44.4184C58.1568 44.0509 58.6976 43.5079 59.0623 42.8502C59.1465 42.7009 59.2208 42.5461 59.2846 42.387C59.4109 42.7135 59.5824 43.0206 59.794 43.2994L59.7987 43.3087C60.2039 43.8517 60.7391 44.2842 61.355 44.5665C61.971 44.8488 62.6479 44.9719 63.3238 44.9244C63.9997 44.8769 64.6528 44.6604 65.2232 44.2947C65.7937 43.9291 66.2631 43.426 66.5884 42.8316C66.6705 42.689 66.7418 42.5404 66.8015 42.387C67.0997 43.1395 67.6174 43.7848 68.2873 44.2391C68.9571 44.6934 69.7482 44.9356 70.5576 44.9343C71.6311 44.9343 72.6608 44.5078 73.4199 43.7487C74.179 42.9896 74.6055 41.96 74.6055 40.8864C74.6055 39.8128 74.179 38.7832 73.4199 38.0241C72.6608 37.265 71.6311 36.8385 70.5576 36.8385V36.8385ZM54.8245 27.1217C55.246 27.1621 55.6446 27.3321 55.9655 27.6083C56.2865 27.8844 56.514 28.2532 56.6169 28.664C56.5143 29.0449 56.3081 29.3899 56.021 29.6606C55.734 29.9313 55.3775 30.1169 54.9912 30.197C54.7925 30.1992 54.5954 30.1602 54.4124 30.0826C54.2295 30.005 54.0645 29.8904 53.928 29.746C53.7914 29.6016 53.6861 29.4306 53.6189 29.2436C53.5516 29.0565 53.5237 28.8576 53.5369 28.6593C53.5201 28.2884 53.643 27.9246 53.8814 27.6399C54.1198 27.3551 54.4563 27.1702 54.8245 27.1217ZM40.4114 27.117C40.7962 27.2032 41.1501 27.3928 41.435 27.6654C41.7198 27.9381 41.9248 28.2833 42.0278 28.664C41.925 29.0456 41.718 29.391 41.4301 29.6618C41.1422 29.9325 40.7847 30.1178 40.3975 30.197C40.004 30.1733 39.6345 29.9998 39.3649 29.7122C39.0953 29.4246 38.9461 29.0446 38.9478 28.6504C38.9496 28.2562 39.1023 27.8777 39.3745 27.5925C39.6466 27.3073 40.0177 27.1372 40.4114 27.117Z" fill="#F9879F"/>
</g>
</svg>
