<svg width="168" height="168" viewBox="0 0 168 168" fill="none" xmlns="http://www.w3.org/2000/svg">
<g opacity="0.15">
<path d="M85.7759 77.7256C86.9898 76.3368 88.9501 75.6319 89.4478 73.5685C89.6117 72.8888 89.8182 73.3018 90.0969 73.6611C91.3808 75.3173 92.6125 77.1123 94.8923 77.4814C96.0631 77.6709 97.2688 77.646 98.4587 77.7179C98.4855 85.2043 98.5269 92.6906 98.5358 100.177C98.549 111.307 98.5242 122.438 98.5516 133.569C98.6307 134.665 98.4598 135.765 98.052 136.785C97.6441 137.806 97.0099 138.721 96.1971 139.461C95.5694 140.036 94.8332 140.481 94.0314 140.768C93.2297 141.055 92.3787 141.18 91.5283 141.134C90.6779 141.088 89.8453 140.872 89.0792 140.5C88.3131 140.128 87.6291 139.607 87.0671 138.967C86.1808 137.996 85.7098 136.716 85.755 135.402C85.8226 132.773 85.7737 130.141 85.7738 127.51C85.7744 110.915 85.7751 94.3203 85.7759 77.7256Z" fill="#FCD1DA"/>
<path d="M68.7847 77.7757C70.2786 77.96 71.7948 77.7584 73.1886 77.1901C73.9336 76.8935 74.612 76.4514 75.1842 75.8897C75.7565 75.3279 76.211 74.6578 76.5213 73.9184C76.8018 73.105 76.8015 73.0312 77.4553 73.8313C78.7229 75.2173 80.0821 76.5165 81.5238 77.7203C81.5222 96.331 81.5243 114.942 81.5302 133.552C81.6132 134.648 81.4457 135.749 81.0404 136.77C80.6352 137.792 80.0027 138.708 79.1911 139.449C78.5678 140.031 77.8338 140.482 77.0326 140.775C76.2315 141.068 75.3796 141.197 74.5278 141.153C73.6759 141.11 72.8415 140.896 72.0741 140.523C71.3068 140.151 70.6223 139.628 70.0613 138.985C69.1392 137.916 68.663 136.534 68.7311 135.124C68.7753 116.008 68.7931 96.8919 68.7847 77.7757Z" fill="#FCD1DA"/>
<path d="M51.8043 74.6969C52.4938 75.0573 53.152 75.4745 53.7721 75.9442C54.4466 76.6558 55.2865 77.1897 56.217 77.4985C57.1476 77.8073 58.14 77.8814 59.1061 77.7143C60.0723 77.5471 60.9821 77.1439 61.7548 76.5404C62.5275 75.9369 63.1392 75.1518 63.5354 74.255C63.7314 73.9093 63.8974 73.5467 64.0774 73.1919L64.5182 74.0664C64.5114 89.6452 64.5102 105.224 64.5145 120.803C64.589 121.95 64.395 123.099 63.9479 124.158C63.5008 125.217 62.813 126.158 61.9389 126.905C61.2287 127.5 60.3968 127.932 59.5017 128.172C58.6065 128.411 57.6698 128.452 56.7572 128.291C55.8447 128.13 54.9785 127.771 54.2194 127.239C53.4604 126.708 52.8269 126.017 52.3635 125.214C51.964 124.416 51.7569 123.536 51.7585 122.644C51.7472 106.661 51.7624 90.6791 51.8043 74.6969Z" fill="#FCD1DA"/>
<path d="M102.866 74.6972C103.526 75.1087 103.869 72.585 104.441 73.0956C107.818 76.1131 112.316 78.2739 114.593 74.2623C114.79 73.9164 114.954 73.5526 115.134 73.1971L115.582 74.0581C115.575 89.6379 115.571 105.218 115.572 120.798C115.652 121.894 115.483 122.994 115.076 124.015C114.67 125.036 114.036 125.952 113.224 126.692C112.596 127.267 111.86 127.711 111.059 127.999C110.257 128.286 109.407 128.411 108.556 128.367C107.706 128.322 106.873 128.109 106.106 127.739C105.339 127.369 104.654 126.85 104.089 126.213C103.166 125.142 102.693 123.755 102.771 122.343C102.828 116.274 102.786 110.203 102.796 104.133C102.813 94.3213 102.836 84.5093 102.866 74.6972Z" fill="#FCD1DA"/>
<path d="M51.1012 74.138C51.0895 73.856 51.1017 73.5736 51.1376 73.2938C51.2133 73.0364 51.3126 72.7866 51.4343 72.5475C51.5567 72.7866 51.6564 73.0366 51.7321 73.2943C51.7676 73.5742 51.779 73.8566 51.7663 74.1384L51.1012 74.138Z" fill="#FCD1DA"/>
<path d="M102.164 74.1386L102.498 73.0956L102.828 74.1388L102.164 74.1386Z" fill="#FCD1DA"/>
<path d="M123.476 64.4674C123.008 64.4675 122.541 64.5136 122.082 64.6052C121.721 64.0848 121.559 63.4517 121.628 62.8221C121.613 60.7178 121.379 58.6208 120.931 56.5649C118.957 48.1975 114.244 40.7292 107.541 35.3459C103.469 31.9994 98.7357 29.5516 93.6512 28.1631C88.5667 26.7747 83.2461 26.4769 78.0385 27.2895C73.0822 27.9486 68.3116 29.6087 64.0167 32.1687C58.5253 35.3579 53.9192 39.8705 50.6179 45.2952C47.3166 50.72 45.4251 56.8846 45.1157 63.2274C45.1096 63.6677 44.9866 64.0985 44.7591 64.4755C44.6809 64.4688 44.6025 64.4661 44.5241 64.4674C43.2368 64.4681 41.9741 64.8196 40.8715 65.484C39.769 66.1485 38.8684 67.1008 38.2664 68.2386C37.6644 69.3764 37.3839 70.6568 37.4549 71.9421C37.5259 73.2274 37.9458 74.469 38.6695 75.5336C39.3931 76.5982 40.3932 77.4455 41.5622 77.9844C42.7312 78.5234 44.025 78.7336 45.3045 78.5924C46.584 78.4513 47.8009 77.9642 48.8243 77.1835C49.8478 76.4028 50.6392 75.3579 51.1135 74.1612C51.6358 75.4789 52.5414 76.6097 53.7132 77.4073C54.885 78.2048 56.2691 78.6326 57.6866 78.6352C59.104 78.6378 60.4897 78.2152 61.6644 77.422C62.8391 76.6287 63.7489 75.5013 64.2761 74.1855C64.8035 75.5001 65.7126 76.6265 66.8861 77.4196C68.0596 78.2127 69.4438 78.6361 70.8602 78.6352C72.2766 78.6343 73.6602 78.2092 74.8328 77.4147C76.0053 76.6202 76.913 75.4926 77.4388 74.1774C77.9608 75.4861 78.8614 76.6094 80.0253 77.4035C81.1892 78.1976 82.5636 78.6264 83.9725 78.6351C85.3815 78.6438 86.7611 78.232 87.9347 77.4523C89.1083 76.6727 90.0227 75.5606 90.5609 74.2585C90.5731 74.232 90.5839 74.205 90.5933 74.1774C90.62 74.267 90.6553 74.3539 90.6987 74.4367C91.2344 75.6388 92.0945 76.6678 93.1825 77.4082C94.2706 78.1486 95.5434 78.5712 96.8582 78.6284C98.173 78.6857 99.4778 78.3753 100.626 77.7323C101.774 77.0892 102.721 76.1388 103.359 74.9879C103.506 74.7266 103.636 74.4558 103.748 74.1774C103.969 74.7486 104.269 75.2861 104.639 75.774L104.648 75.7903C105.357 76.7405 106.293 77.4974 107.371 77.9914C108.449 78.4855 109.634 78.7008 110.817 78.6177C111.999 78.5346 113.142 78.1557 114.141 77.5158C115.139 76.8759 115.96 75.9955 116.53 74.9554C116.673 74.7058 116.798 74.4457 116.902 74.1774C117.424 75.4941 118.33 76.6234 119.503 77.4185C120.675 78.2135 122.059 78.6374 123.476 78.6351C125.354 78.6351 127.156 77.8888 128.485 76.5603C129.813 75.2318 130.559 73.43 130.559 71.5513C130.559 69.6725 129.813 67.8707 128.485 66.5423C127.156 65.2138 125.354 64.4674 123.476 64.4674V64.4674ZM95.9427 47.463C96.6803 47.5337 97.3778 47.8312 97.9395 48.3145C98.5012 48.7978 98.8994 49.4432 99.0793 50.162C98.8999 50.8287 98.5389 51.4324 98.0366 51.9061C97.5344 52.3798 96.9105 52.7047 96.2344 52.8448C95.8866 52.8486 95.5418 52.7805 95.2216 52.6447C94.9014 52.5089 94.6127 52.3083 94.3737 52.0556C94.1348 51.8029 93.9506 51.5036 93.8328 51.1763C93.7151 50.849 93.6662 50.5009 93.6894 50.1539C93.6599 49.5047 93.875 48.8681 94.2922 48.3698C94.7094 47.8716 95.2984 47.548 95.9427 47.463ZM70.7197 47.4549C71.3931 47.6056 72.0125 47.9375 72.511 48.4146C73.0096 48.8917 73.3683 49.4959 73.5484 50.162C73.3685 50.8298 73.0064 51.4344 72.5025 51.9082C71.9987 52.382 71.373 52.7063 70.6954 52.8448C70.0068 52.8033 69.3602 52.4997 68.8884 51.9964C68.4166 51.4931 68.1554 50.8282 68.1585 50.1383C68.1617 49.4485 68.4288 48.786 68.9051 48.2869C69.3814 47.7879 70.0308 47.4901 70.7197 47.4549Z" fill="#F9879F"/>
</g>
</svg>
