<svg width="132" height="132" viewBox="0 0 132 132" fill="none" xmlns="http://www.w3.org/2000/svg">
<g opacity="0.15">
<path d="M67.3954 61.0699C68.3491 59.9787 69.8894 59.4248 70.2804 57.8036C70.4092 57.2695 70.5714 57.5941 70.7904 57.8764C71.7992 59.1777 72.767 60.588 74.5582 60.878C75.4782 61.0269 76.4255 61.0073 77.3604 61.0639C77.3815 66.946 77.414 72.8281 77.421 78.7102C77.4314 87.4557 77.4118 96.2012 77.4334 104.947C77.4955 105.808 77.3613 106.672 77.0408 107.474C76.7204 108.276 76.2221 108.995 75.5834 109.576C75.0903 110.028 74.5118 110.378 73.8818 110.603C73.2519 110.829 72.5833 110.927 71.9151 110.891C71.2469 110.854 70.5927 110.685 69.9908 110.393C69.3889 110.101 68.8514 109.691 68.4099 109.188C67.7135 108.425 67.3434 107.42 67.3789 106.387C67.432 104.321 67.3936 102.253 67.3937 100.186C67.3942 87.1473 67.3947 74.1086 67.3954 61.0699Z" fill="#F8F9FA"/>
<path d="M54.0451 61.1094C55.2189 61.2542 56.4102 61.0958 57.5053 60.6493C58.0907 60.4162 58.6237 60.0689 59.0733 59.6275C59.5229 59.1861 59.8801 58.6596 60.1239 58.0786C60.3443 57.4396 60.344 57.3816 60.8578 58.0103C61.8537 59.0992 62.9217 60.1201 64.0544 61.0659C64.0531 75.6886 64.0548 90.3112 64.0595 104.934C64.1247 105.795 63.9931 106.66 63.6747 107.462C63.3562 108.265 62.8593 108.985 62.2216 109.567C61.7319 110.025 61.1551 110.379 60.5257 110.609C59.8962 110.839 59.2269 110.94 58.5575 110.906C57.8882 110.872 57.2326 110.704 56.6297 110.411C56.0268 110.118 55.489 109.707 55.0482 109.202C54.3237 108.363 53.9495 107.277 54.003 106.169C54.0377 91.149 54.0518 76.1292 54.0451 61.1094Z" fill="#F8F9FA"/>
<path d="M40.7034 58.6903C41.2451 58.9735 41.7623 59.3013 42.2495 59.6703C42.7795 60.2294 43.4394 60.6489 44.1705 60.8916C44.9017 61.1342 45.6815 61.1924 46.4405 61.0611C47.1996 60.9298 47.9145 60.6129 48.5216 60.1388C49.1288 59.6646 49.6094 59.0478 49.9207 58.3431C50.0747 58.0715 50.2051 57.7866 50.3465 57.5078L50.6929 58.1949C50.6876 70.4354 50.6866 82.6759 50.69 94.9163C50.7485 95.8178 50.5961 96.7204 50.2448 97.5527C49.8935 98.3849 49.353 99.1238 48.6663 99.7107C48.1083 100.178 47.4547 100.518 46.7513 100.706C46.048 100.895 45.312 100.926 44.595 100.8C43.878 100.673 43.1974 100.391 42.601 99.9737C42.0046 99.556 41.5069 99.0129 41.1427 98.3824C40.8289 97.7555 40.6661 97.0638 40.6674 96.3627C40.6585 83.8052 40.6705 71.2478 40.7034 58.6903Z" fill="#F8F9FA"/>
<path d="M80.8235 58.6907C81.3422 59.014 81.6113 57.0311 82.0605 57.4323C84.7141 59.8031 88.2484 61.5009 90.0375 58.349C90.1918 58.0772 90.3213 57.7913 90.4623 57.512L90.8148 58.1885C90.8087 70.4298 90.8059 82.6711 90.8062 94.9123C90.8697 95.7736 90.7367 96.638 90.4172 97.4404C90.0977 98.2427 89.6001 98.962 88.962 99.5439C88.4685 99.9956 87.8901 100.345 87.2604 100.57C86.6307 100.796 85.9624 100.895 85.2943 100.859C84.6263 100.824 83.9719 100.657 83.3693 100.366C82.7668 100.076 82.2281 99.668 81.7846 99.1672C81.0589 98.326 80.6877 97.2362 80.7489 96.127C80.7935 91.3581 80.7606 86.5884 80.7687 81.8191C80.7818 74.1096 80.8 66.4001 80.8235 58.6907Z" fill="#F8F9FA"/>
<path d="M40.1509 58.2511C40.1418 58.0296 40.1513 57.8077 40.1796 57.5878C40.239 57.3856 40.3171 57.1893 40.4127 57.0015C40.5089 57.1893 40.5872 57.3857 40.6467 57.5882C40.6746 57.8081 40.6836 58.03 40.6735 58.2514L40.1509 58.2511Z" fill="#F8F9FA"/>
<path d="M80.272 58.2516L80.5344 57.4321L80.7934 58.2518L80.272 58.2516Z" fill="#F8F9FA"/>
<path d="M97.0166 50.6527C96.6488 50.6528 96.2819 50.689 95.9212 50.761C95.6376 50.3521 95.511 49.8547 95.5646 49.36C95.5531 47.7066 95.3695 46.059 95.0169 44.4437C93.466 37.8692 89.7632 32.0013 84.4965 27.7716C81.2972 25.1421 77.578 23.2189 73.5831 22.128C69.5882 21.037 65.4077 20.8031 61.316 21.4415C57.4217 21.9594 53.6734 23.2637 50.2989 25.2752C45.9842 27.781 42.3651 31.3266 39.7712 35.5889C37.1773 39.8512 35.6912 44.6948 35.4481 49.6784C35.4433 50.0244 35.3466 50.3629 35.1679 50.6591C35.1065 50.6538 35.0448 50.6517 34.9832 50.6528C33.9718 50.6533 32.9796 50.9295 32.1134 51.4515C31.2471 51.9736 30.5395 52.7218 30.0665 53.6158C29.5935 54.5098 29.3731 55.5158 29.4289 56.5257C29.4847 57.5356 29.8146 58.5112 30.3832 59.3476C30.9518 60.1841 31.7375 60.8498 32.656 61.2733C33.5746 61.6967 34.5911 61.8619 35.5964 61.751C36.6017 61.6401 37.5578 61.2574 38.362 60.644C39.1662 60.0305 39.788 59.2096 40.1606 58.2693C40.571 59.3046 41.2826 60.1931 42.2032 60.8198C43.1239 61.4464 44.2114 61.7825 45.3252 61.7846C46.4389 61.7866 47.5276 61.4546 48.4506 60.8313C49.3736 60.208 50.0885 59.3222 50.5027 58.2884C50.9171 59.3213 51.6313 60.2063 52.5534 60.8295C53.4754 61.4526 54.563 61.7853 55.6759 61.7846C56.7888 61.7839 57.8759 61.4499 58.7972 60.8256C59.7185 60.2013 60.4316 59.3154 60.8448 58.282C61.2549 59.3103 61.9625 60.1929 62.877 60.8168C63.7916 61.4407 64.8714 61.7776 65.9784 61.7845C67.0855 61.7913 68.1694 61.4677 69.0916 60.8552C70.0137 60.2426 70.7322 59.3688 71.155 58.3457C71.1646 58.3249 71.1731 58.3037 71.1805 58.282C71.2014 58.3525 71.2292 58.4207 71.2632 58.4858C71.6842 59.4303 72.36 60.2388 73.2149 60.8205C74.0698 61.4023 75.0699 61.7343 76.1029 61.7793C77.136 61.8242 78.1612 61.5804 79.0634 61.0751C79.9655 60.5699 80.7091 59.8232 81.2105 58.9188C81.3263 58.7135 81.4285 58.5008 81.5162 58.282C81.6899 58.7308 81.9257 59.1531 82.2167 59.5365L82.2231 59.5493C82.7803 60.2959 83.5161 60.8906 84.363 61.2788C85.2099 61.6669 86.1408 61.8361 87.0701 61.7708C87.9995 61.7055 88.8975 61.4078 89.6819 60.9051C90.4662 60.4023 91.1116 59.7105 91.5589 58.8933C91.6719 58.6972 91.7698 58.4929 91.8519 58.282C92.2619 59.3166 92.9738 60.2039 93.8949 60.8286C94.8159 61.4532 95.9036 61.7863 97.0166 61.7845C98.4927 61.7845 99.9084 61.1981 100.952 60.1543C101.996 59.1105 102.582 57.6948 102.582 56.2186C102.582 54.7425 101.996 53.3268 100.952 52.283C99.9084 51.2392 98.4927 50.6528 97.0166 50.6528V50.6527ZM75.3835 37.2921C75.9631 37.3477 76.5112 37.5814 76.9525 37.9612C77.3938 38.3409 77.7067 38.848 77.8481 39.4128C77.7071 39.9366 77.4235 40.411 77.0288 40.7831C76.6342 41.1553 76.144 41.4106 75.6128 41.5207C75.3395 41.5237 75.0686 41.4702 74.817 41.3635C74.5654 41.2567 74.3386 41.0992 74.1508 40.9006C73.963 40.7021 73.8183 40.4669 73.7258 40.2097C73.6333 39.9526 73.5949 39.6791 73.6131 39.4064C73.59 38.8963 73.759 38.3961 74.0868 38.0046C74.4146 37.6132 74.8773 37.3589 75.3835 37.2921ZM55.5655 37.2858C56.0946 37.4042 56.5813 37.6649 56.973 38.0398C57.3647 38.4146 57.6465 38.8894 57.7881 39.4128C57.6467 39.9375 57.3622 40.4125 56.9663 40.7848C56.5704 41.157 56.0788 41.4118 55.5464 41.5207C55.0054 41.4881 54.4973 41.2496 54.1266 40.8541C53.7559 40.4586 53.5507 39.9362 53.5532 39.3942C53.5556 38.8521 53.7655 38.3316 54.1398 37.9395C54.514 37.5474 55.0242 37.3135 55.5655 37.2858Z" fill="white"/>
</g>
</svg>
