<svg width="32" height="32" viewBox="0 0 32 32" fill="none" xmlns="http://www.w3.org/2000/svg">
<path d="M30.2778 8.31664C30.4833 7.62219 30.2778 7.11108 29.2889 7.11108H26.0167C25.1833 7.11108 24.8 7.54997 24.5944 8.03886C24.5944 8.03886 22.9278 12.1 20.5722 14.7333C19.8111 15.4944 19.4611 15.7389 19.0444 15.7389C18.8389 15.7389 18.5222 15.4944 18.5222 14.8V8.31664C18.5222 7.48331 18.2889 7.11108 17.6 7.11108H12.4555C11.9333 7.11108 11.6222 7.49997 11.6222 7.86108C11.6222 8.64997 12.8 8.83331 12.9222 11.0555V15.8778C12.9222 16.9333 12.7333 17.1278 12.3167 17.1278C11.2055 17.1278 8.50555 13.05 6.90555 8.38331C6.58333 7.47775 6.26666 7.11108 5.42777 7.11108H2.15555C1.22221 7.11108 1.03333 7.54997 1.03333 8.03886C1.03333 8.90553 2.14444 13.2111 6.20555 18.9C8.9111 22.7833 12.7222 24.8889 16.1889 24.8889C18.2722 24.8889 18.5278 24.4222 18.5278 23.6166C18.5278 19.9055 18.3389 19.5555 19.3833 19.5555C19.8667 19.5555 20.7 19.8 22.6444 21.6722C24.8667 23.8944 25.2333 24.8889 26.4778 24.8889H29.75C30.6833 24.8889 31.1555 24.4222 30.8833 23.5C30.2611 21.5611 26.0555 17.5722 25.8667 17.3055C25.3833 16.6833 25.5222 16.4055 25.8667 15.85C25.8722 15.8444 29.8667 10.2222 30.2778 8.31664V8.31664Z" fill="#152536"/>
</svg>
