<svg width="132" height="132" viewBox="0 0 132 132" fill="none" xmlns="http://www.w3.org/2000/svg">
<g opacity="0.15">
<path d="M54.8713 56.1124C65.8508 56.1251 76.8308 56.0789 87.8092 56.1961C89.0276 56.1218 90.1803 55.6179 91.0623 54.774C91.9443 53.93 92.4985 52.8006 92.6264 51.5866C92.6883 50.975 92.628 50.3573 92.4488 49.7692C92.2696 49.1812 91.9753 48.6347 91.5829 48.1616C91.1905 47.6884 90.7079 47.2981 90.1631 47.0133C89.6184 46.7285 89.0224 46.5549 88.41 46.5026C87.7111 46.3896 87.0126 46.2596 86.3254 46.091C85.318 45.8477 84.4143 45.2896 83.7455 44.4978C83.0768 43.706 82.6778 42.7217 82.6064 41.6877C82.5614 40.6988 82.799 39.7176 83.2914 38.8588C83.7838 38.0001 84.5106 37.2993 85.3868 36.8386C85.5919 36.722 85.8086 36.6271 86.0334 36.5555C88.804 35.8534 91.708 35.87 94.4704 36.6037C95.2161 36.8632 95.8888 37.2975 96.4321 37.8704C96.9207 38.4313 97.3511 39.0404 97.7168 39.6882C98.1657 39.0455 98.6499 38.4281 99.1671 37.839C101.58 35.3579 108.82 35.4325 111.359 37.7978C113.244 39.5537 113.476 44.1283 110.101 45.6527C109.245 46.0463 108.339 46.3217 107.409 46.4713C106.094 46.5339 104.858 47.1152 103.971 48.0877C103.085 49.0602 102.62 50.3446 102.678 51.6593C102.619 53.2484 102.668 54.8416 102.666 56.4329C102.662 61.6842 102.685 66.9358 102.647 72.1869C102.547 79.2699 100.157 86.1302 95.8341 91.7423C91.299 97.9197 84.8233 102.398 77.4428 104.461C74.8104 105.3 72.07 105.752 69.3075 105.802C60.3166 105.778 51.3256 105.796 42.3347 105.8C38.9098 105.753 35.6017 104.548 32.9497 102.38C30.2976 100.213 28.458 97.2106 27.7308 93.8635C27.6015 93.0775 27.5624 92.2792 27.6144 91.4843C27.607 84.562 27.6464 77.6396 27.6008 70.7177C27.6812 67.3355 28.9239 64.0842 31.1199 61.5107C33.3159 58.9372 36.3312 57.1984 39.6586 56.587C41.2185 56.3801 42.7925 56.2331 44.3644 56.1722C46.4299 56.0922 48.4997 56.1247 50.5677 56.1088L54.8713 56.1124ZM42.6802 92.8797C43.2326 92.875 43.7606 92.6517 44.1488 92.2588C44.537 91.8658 44.7538 91.3351 44.7518 90.7828C44.6777 90.2782 44.4178 89.8196 44.0231 89.4967C43.6283 89.1739 43.1272 89.0101 42.618 89.0376C42.1073 89.0244 41.6108 89.207 41.2304 89.548C40.8499 89.889 40.6143 90.3626 40.5718 90.8717C40.5674 91.1452 40.6197 91.4167 40.7254 91.669C40.8312 91.9213 40.988 92.1489 41.1861 92.3376C41.3842 92.5262 41.6193 92.6718 41.8764 92.7651C42.1336 92.8584 42.4072 92.8974 42.6802 92.8797V92.8797Z" fill="white"/>
<path d="M54.8714 56.1125L50.5677 56.1088C50.5705 51.2546 50.581 46.4003 50.5735 41.5461C50.5683 38.1681 48.8901 36.5319 45.4414 36.5256C41.6217 36.5188 37.8008 36.5744 33.9829 36.4923C32.8131 36.4627 31.657 36.2344 30.5638 35.8171C29.5028 35.4075 28.6201 34.6371 28.0708 33.6413C27.5215 32.6454 27.3406 31.4879 27.5601 30.372C27.7795 29.256 28.3852 28.2531 29.2706 27.5394C30.1561 26.8257 31.2648 26.4469 32.4019 26.4695C33.3843 26.2929 34.3976 26.4685 35.2634 26.9654C36.1292 27.4622 36.792 28.2485 37.1352 29.1858C37.4926 30.0889 37.7363 29.4995 38.0296 29.184C38.6223 28.3701 39.3198 27.6379 40.1041 27.0065C40.6687 26.6229 41.3102 26.3672 41.9839 26.2574C42.6576 26.1475 43.3471 26.1862 44.0043 26.3706C44.6615 26.555 45.2704 26.8807 45.7886 27.3249C46.3068 27.7692 46.7217 28.3213 47.0044 28.9426C47.4439 29.7304 47.6362 29.8176 48.1669 29.0359C48.7472 27.9378 49.7025 27.0846 50.8589 26.6315C52.0152 26.1784 53.2959 26.1555 54.4677 26.567C55.0391 26.7354 55.5668 27.0264 56.014 27.4198C56.4612 27.8132 56.8172 28.2995 57.0571 28.8447C57.3044 29.3723 57.7914 29.6439 58.257 28.7966C59.5343 26.4725 61.7462 26.2493 64.0388 26.527C64.7467 26.6174 65.4185 26.8919 65.9871 27.3231C66.5557 27.7543 67.0013 28.3272 67.2792 28.9845C67.4036 29.242 67.5441 29.4919 67.677 29.7453C67.9475 29.5143 68.1924 29.2549 68.4074 28.9716C68.7898 28.2854 69.3248 27.6963 69.9711 27.2499C70.6175 26.8035 71.3578 26.5117 72.1349 26.3971C72.912 26.2825 73.7051 26.3482 74.4528 26.589C75.2005 26.8298 75.8828 27.2394 76.4469 27.786C77.0046 28.3202 77.426 28.9805 77.6754 29.7114C77.9249 30.4423 77.9953 31.2225 77.8806 31.9862C77.766 32.75 77.4696 33.475 77.0165 34.1004C76.5634 34.7258 75.9667 35.2333 75.2767 35.5802C74.1557 36.1249 72.9342 36.432 71.6889 36.4821C67.7928 36.594 63.8915 36.519 59.9922 36.5256C56.5354 36.5314 54.8703 38.1581 54.8653 41.5498C54.8582 46.404 54.8685 51.2582 54.8714 56.1125Z" fill="#F8F9FA"/>
</g>
</svg>
