<svg width="168" height="168" viewBox="0 0 168 168" fill="none" xmlns="http://www.w3.org/2000/svg">
<g opacity="0.15">
<path d="M69.8362 71.4155C83.8102 71.4316 97.7847 71.3729 111.757 71.5221C113.308 71.4275 114.775 70.7862 115.898 69.712C117.02 68.6379 117.725 67.2005 117.888 65.6554C117.967 64.8771 117.89 64.0908 117.662 63.3424C117.434 62.594 117.059 61.8985 116.56 61.2963C116.061 60.6941 115.446 60.1973 114.753 59.8348C114.06 59.4723 113.301 59.2514 112.522 59.1849C111.632 59.041 110.743 58.8756 109.869 58.661C108.587 58.3513 107.436 57.641 106.585 56.6333C105.734 55.6256 105.226 54.3728 105.135 53.0568C105.078 51.7983 105.381 50.5494 106.007 49.4564C106.634 48.3634 107.559 47.4716 108.674 46.8852C108.935 46.7368 109.211 46.616 109.497 46.5249C113.023 45.6314 116.719 45.6525 120.235 46.5862C121.184 46.9165 122.04 47.4693 122.732 48.1984C123.354 48.9123 123.901 49.6875 124.367 50.512C124.938 49.694 125.554 48.9083 126.213 48.1585C129.283 45.0007 138.499 45.0956 141.73 48.106C144.128 50.3408 144.424 56.1631 140.128 58.1032C139.039 58.6042 137.886 58.9547 136.702 59.1451C135.029 59.2247 133.456 59.9645 132.327 61.2022C131.199 62.44 130.607 64.0746 130.682 65.748C130.606 67.7704 130.668 69.7981 130.666 71.8234C130.661 78.5069 130.69 85.1907 130.642 91.8739C130.514 100.889 127.472 109.62 121.971 116.763C116.199 124.625 107.957 130.324 98.5635 132.95C95.2133 134.018 91.7254 134.593 88.2095 134.657C76.7666 134.626 65.3236 134.65 53.8806 134.654C49.5217 134.595 45.3113 133.061 41.9359 130.302C38.5606 127.543 36.2193 123.722 35.2938 119.462C35.1292 118.462 35.0794 117.446 35.1456 116.434C35.1362 107.624 35.1863 98.8138 35.1284 90.0041C35.2306 85.6995 36.8122 81.5615 39.6071 78.2861C42.402 75.0107 46.2397 72.7977 50.4746 72.0195C52.46 71.7562 54.4632 71.5691 56.4638 71.4917C59.0926 71.3898 61.7269 71.4312 64.3589 71.4109L69.8362 71.4155ZM54.3203 118.21C55.0233 118.204 55.6953 117.92 56.1894 117.42C56.6835 116.92 56.9594 116.244 56.9569 115.541C56.8626 114.899 56.5318 114.316 56.0294 113.905C55.527 113.494 54.8892 113.285 54.2411 113.32C53.5911 113.303 52.9593 113.536 52.4751 113.97C51.9909 114.404 51.691 115.007 51.6368 115.655C51.6312 116.003 51.6978 116.348 51.8324 116.669C51.967 116.99 52.1666 117.28 52.4187 117.52C52.6709 117.76 52.97 117.946 53.2973 118.064C53.6246 118.183 53.9729 118.233 54.3203 118.21V118.21Z" fill="#3FBEAC"/>
<path d="M69.8363 71.4156L64.3589 71.4109C64.3625 65.2328 64.3758 59.0547 64.3663 52.8766C64.3597 48.5773 62.2238 46.4948 57.8345 46.4869C52.9731 46.4781 48.1102 46.5489 43.2509 46.4445C41.7622 46.4068 40.2907 46.1162 38.8994 45.5851C37.5491 45.0638 36.4256 44.0833 35.7265 42.8159C35.0273 41.5485 34.7972 40.0752 35.0765 38.6549C35.3557 37.2347 36.1266 35.9582 37.2536 35.0499C38.3805 34.1416 39.7916 33.6594 41.2388 33.6882C42.4892 33.4635 43.7788 33.6869 44.8807 34.3193C45.9826 34.9516 46.8262 35.9523 47.263 37.1453C47.7178 38.2947 48.028 37.5446 48.4013 37.143C49.1557 36.1071 50.0434 35.1752 51.0416 34.3716C51.7602 33.8834 52.5767 33.558 53.4341 33.4182C54.2915 33.2784 55.169 33.3276 56.0055 33.5623C56.8419 33.7969 57.6169 34.2115 58.2765 34.7769C58.936 35.3423 59.464 36.045 59.8237 36.8357C60.3832 37.8385 60.628 37.9494 61.3034 36.9545C62.0419 35.557 63.2577 34.471 64.7295 33.8943C66.2012 33.3176 67.8311 33.2885 69.3225 33.8123C70.0497 34.0266 70.7213 34.397 71.2905 34.8976C71.8598 35.3983 72.3128 36.0172 72.6181 36.7111C72.9329 37.3827 73.5527 37.7284 74.1453 36.65C75.7709 33.692 78.586 33.408 81.5039 33.7614C82.4049 33.8764 83.2599 34.2257 83.9836 34.7746C84.7073 35.3234 85.2744 36.0525 85.6281 36.889C85.7864 37.2169 85.9652 37.5348 86.1344 37.8573C86.4787 37.5634 86.7903 37.2333 87.064 36.8727C87.5506 35.9994 88.2316 35.2496 89.0542 34.6815C89.8768 34.1133 90.819 33.7419 91.8081 33.5961C92.7972 33.4502 93.8065 33.5337 94.7581 33.8403C95.7097 34.1468 96.5781 34.668 97.2961 35.3637C98.0059 36.0436 98.5421 36.8841 98.8597 37.8143C99.1772 38.7445 99.2668 39.7374 99.1208 40.7094C98.9749 41.6815 98.5977 42.6043 98.021 43.4003C97.4443 44.1962 96.6849 44.8421 95.8067 45.2836C94.38 45.9769 92.8254 46.3677 91.2405 46.4315C86.2818 46.5739 81.3165 46.4785 76.3537 46.4869C71.9542 46.4943 69.8349 48.5646 69.8286 52.8813C69.8195 59.0593 69.8326 65.2375 69.8363 71.4156Z" fill="#BFE5DD"/>
</g>
</svg>
