<svg width="96" height="96" viewBox="0 0 96 96" fill="none" xmlns="http://www.w3.org/2000/svg">
<g opacity="0.2">
<path d="M39.9065 40.8089C47.8917 40.8181 55.8771 40.7846 63.8614 40.8698C64.7475 40.8158 65.5858 40.4493 66.2273 39.8355C66.8688 39.2217 67.2718 38.4003 67.3648 37.5174C67.4099 37.0726 67.3659 36.6233 67.2357 36.1957C67.1054 35.768 66.8913 35.3706 66.6059 35.0265C66.3205 34.6824 65.9695 34.3985 65.5733 34.1913C65.1772 33.9842 64.7438 33.858 64.2983 33.82C63.79 33.7378 63.2821 33.6432 62.7823 33.5206C62.0496 33.3436 61.3924 32.9378 60.906 32.3619C60.4196 31.7861 60.1295 31.0702 60.0776 30.3182C60.0448 29.599 60.2176 28.8854 60.5757 28.2608C60.9339 27.6363 61.4624 27.1266 62.0997 26.7916C62.2488 26.7068 62.4064 26.6378 62.5699 26.5857C64.5849 26.0751 66.6969 26.0872 68.7059 26.6207C69.2482 26.8095 69.7375 27.1253 70.1326 27.542C70.488 27.9499 70.801 28.3929 71.067 28.864C71.3934 28.3966 71.7455 27.9476 72.1217 27.5192C73.8762 25.7147 79.1423 25.769 80.9886 27.4892C82.3591 28.7662 82.5279 32.0932 80.0735 33.2018C79.4509 33.4881 78.7923 33.6884 78.1157 33.7972C77.1597 33.8427 76.2607 34.2655 75.6158 34.9727C74.9709 35.68 74.6327 36.6141 74.6754 37.5703C74.6324 38.726 74.6675 39.8847 74.6666 41.042C74.6637 44.8611 74.6799 48.6804 74.6527 52.4994C74.5796 57.6507 72.8413 62.64 69.6977 66.7216C66.3994 71.2142 61.6898 74.471 56.3222 75.9712C54.4077 76.5817 52.4147 76.9103 50.4056 76.9469C43.8668 76.9294 37.3279 76.9427 30.789 76.945C28.2982 76.9112 25.8923 76.0347 23.9635 74.4583C22.0348 72.8818 20.6969 70.6985 20.168 68.2643C20.0739 67.6926 20.0455 67.112 20.0833 66.5339C20.078 61.4996 20.1066 56.4651 20.0735 51.4309C20.1319 48.9712 21.0357 46.6066 22.6328 44.7349C24.2299 42.8633 26.4228 41.5987 28.8427 41.154C29.9773 41.0036 31.122 40.8967 32.2652 40.8524C33.7674 40.7942 35.2727 40.8178 36.7767 40.8063L39.9065 40.8089ZM31.0403 67.5488C31.442 67.5453 31.826 67.3829 32.1084 67.0972C32.3907 66.8114 32.5484 66.4254 32.547 66.0237C32.493 65.6568 32.304 65.3232 32.0169 65.0884C31.7298 64.8536 31.3654 64.7345 30.9951 64.7545C30.6236 64.7449 30.2626 64.8777 29.9859 65.1257C29.7092 65.3737 29.5378 65.7181 29.5069 66.0884C29.5037 66.2873 29.5418 66.4847 29.6187 66.6682C29.6956 66.8517 29.8096 67.0173 29.9537 67.1545C30.0978 67.2917 30.2687 67.3975 30.4557 67.4654C30.6427 67.5333 30.8418 67.5616 31.0403 67.5487V67.5488Z" fill="#3FBEAC"/>
<path d="M39.9064 40.8089L36.7765 40.8062C36.7785 37.2759 36.7861 33.7455 36.7807 30.2152C36.7769 27.7585 35.5564 26.5685 33.0483 26.5639C30.2703 26.5589 27.4915 26.5994 24.7148 26.5397C23.8641 26.5181 23.0232 26.3521 22.2282 26.0486C21.4566 25.7507 20.8146 25.1904 20.4151 24.4662C20.0156 23.742 19.8841 22.9001 20.0436 22.0885C20.2032 21.2769 20.6437 20.5475 21.2877 20.0285C21.9317 19.5094 22.738 19.2339 23.565 19.2504C24.2795 19.122 25.0164 19.2497 25.646 19.611C26.2757 19.9723 26.7578 20.5442 27.0074 21.2259C27.2673 21.8827 27.4445 21.454 27.6578 21.2245C28.0889 20.6326 28.5962 20.1001 29.1666 19.6409C29.5772 19.3619 30.0438 19.176 30.5337 19.0961C31.0236 19.0162 31.5251 19.0443 32.0031 19.1784C32.481 19.3125 32.9239 19.5494 33.3008 19.8725C33.6776 20.1956 33.9794 20.5971 34.1849 21.049C34.5046 21.622 34.6445 21.6853 35.0304 21.1168C35.4525 20.3182 36.1472 19.6977 36.9882 19.3682C37.8292 19.0386 38.7606 19.022 39.6128 19.3213C40.0284 19.4437 40.4121 19.6554 40.7374 19.9415C41.0627 20.2276 41.3216 20.5812 41.496 20.9778C41.6759 21.3615 42.0301 21.559 42.3687 20.9428C43.2976 19.2525 44.9062 19.0902 46.5736 19.2922C47.0884 19.3579 47.577 19.5575 47.9906 19.8712C48.4041 20.1848 48.7282 20.6014 48.9303 21.0794C49.0207 21.2668 49.1229 21.4485 49.2196 21.6327C49.4163 21.4648 49.5944 21.2761 49.7508 21.0701C50.0289 20.571 50.418 20.1426 50.888 19.818C51.3581 19.4933 51.8965 19.2811 52.4617 19.1977C53.0269 19.1144 53.6037 19.1621 54.1474 19.3373C54.6912 19.5124 55.1874 19.8103 55.5977 20.2078C56.0033 20.5963 56.3097 21.0766 56.4912 21.6081C56.6726 22.1397 56.7238 22.7071 56.6404 23.2625C56.557 23.818 56.3415 24.3453 56.0119 24.8001C55.6824 25.255 55.2485 25.624 54.7466 25.8763C53.9314 26.2725 53.043 26.4958 52.1374 26.5323C49.3038 26.6136 46.4665 26.5591 43.6306 26.5639C41.1166 26.5681 39.9056 27.7512 39.902 30.2178C39.8968 33.7482 39.9043 37.2785 39.9064 40.8089Z" fill="#BFE5DD"/>
</g>
</svg>
